<svg width="65" height="65" viewBox="0 0 65 65" fill="none" xmlns="http://www.w3.org/2000/svg">
<mask id="mask0_801_609" style="mask-type:alpha" maskUnits="userSpaceOnUse" x="0" y="0" width="65" height="65">
<path fill-rule="evenodd" clip-rule="evenodd" d="M4.12597 1.96692C22.9997 1.94576 41.8734 1.96692 60.7471 2.0304C61.7839 2.39009 62.4821 3.08834 62.8418 4.12512C62.9265 18.9364 62.9265 33.7475 62.8418 48.5587C62.5433 49.4498 61.972 50.1058 61.1279 50.5265C59.8253 50.6865 58.5135 50.7711 57.1924 50.7804C58.9099 52.4555 60.5815 54.1694 62.207 55.922C62.9454 57.8625 62.4164 59.3224 60.6201 60.3019C59.7156 60.5813 58.8269 60.5389 57.9541 60.1749C54.7415 57.0893 51.5677 53.9578 48.4326 50.7804C45.5553 50.7169 42.6777 50.6957 39.7998 50.7169C40.3773 54.0977 40.9275 57.483 41.4502 60.8732C43.0165 60.852 44.5822 60.8732 46.1475 60.9366C46.5303 61.1308 46.6996 61.4481 46.6553 61.8888C46.6996 62.3294 46.5303 62.6468 46.1475 62.8409C37.0068 62.9256 27.8662 62.9256 18.7256 62.8409C18.3427 62.6468 18.1735 62.3294 18.2178 61.8888C18.1735 61.4481 18.3427 61.1308 18.7256 60.9366C20.2908 60.8732 21.8565 60.852 23.4228 60.8732C23.9455 57.483 24.4957 54.0977 25.0732 50.7169C18.0907 50.7381 11.1083 50.7169 4.12597 50.6534C3.23486 50.355 2.57893 49.7837 2.1582 48.9396C1.94735 34.0085 1.90504 19.0704 2.03124 4.12512C2.41453 3.08609 3.11277 2.3667 4.12597 1.96692ZM5.01464 3.99817C23.2959 3.97701 41.5771 3.99817 59.8584 4.06165C60.4297 4.12512 60.7471 4.44251 60.8105 5.0138C60.874 6.70598 60.8952 8.39868 60.874 10.0919C41.9157 10.0919 22.9573 10.0919 3.99902 10.0919C3.97787 8.39868 3.99903 6.70598 4.06249 5.0138C4.14887 4.44117 4.46625 4.10263 5.01464 3.99817ZM3.99902 12.1232C22.9573 12.1232 41.9157 12.1232 60.874 12.1232C60.874 20.9252 60.874 29.7274 60.874 38.5294C55.5419 38.5506 50.2098 38.5294 44.8779 38.4659C44.3489 37.9369 43.82 37.408 43.291 36.879C42.9072 35.4287 42.4841 33.9898 42.0215 32.5626C41.3482 31.4245 40.3961 30.5993 39.165 30.087C36.6408 29.4426 34.1018 28.8713 31.5478 28.3732C31.1983 28.3545 30.881 28.4392 30.5957 28.6271C30.4027 29.119 30.3603 29.6268 30.4687 30.1505C30.9989 32.4826 31.549 34.8101 32.1191 37.1329C32.2964 37.6065 32.5292 38.0508 32.8174 38.4659C23.2113 38.5294 13.6052 38.5506 3.99902 38.5294C3.99902 29.7274 3.99902 20.9252 3.99902 12.1232ZM32.4365 16.1857C40.5615 16.1857 48.6865 16.1857 56.8115 16.1857C56.8115 17.5399 56.8115 18.894 56.8115 20.2482C48.6865 20.2482 40.5615 20.2482 32.4365 20.2482C32.4365 18.894 32.4365 17.5399 32.4365 16.1857ZM12.124 20.2482C15.5095 20.2482 18.8948 20.2482 22.2803 20.2482C22.2803 23.6336 22.2803 27.019 22.2803 30.4044C18.8948 30.4044 15.5095 30.4044 12.124 30.4044C12.124 27.019 12.124 23.6336 12.124 20.2482ZM32.9443 30.9122C34.6017 31.231 36.2521 31.5908 37.8955 31.9913C38.9105 32.2125 39.651 32.7838 40.1172 33.7052C40.4933 34.7858 40.7472 35.8861 40.8789 37.006C40.2341 37.7149 39.5359 38.3497 38.7842 38.9103C37.4922 38.683 36.2649 38.281 35.1025 37.7042C34.5321 37.2175 34.1725 36.6039 34.0234 35.8634C33.6431 34.2154 33.2834 32.565 32.9443 30.9122ZM42.085 38.9103C43.5763 40.2107 45.015 41.5861 46.4014 43.0363C45.957 43.4806 45.5127 43.9249 45.0684 44.3693C43.7141 43.0151 42.3601 41.661 41.0059 40.3068C40.9212 40.2221 40.9212 40.1375 41.0059 40.0529C41.3915 39.6886 41.7512 39.3078 42.085 38.9103ZM3.99902 40.5607C14.9171 40.5395 25.8351 40.5607 36.7529 40.6241C37.491 40.7769 38.2105 40.9885 38.9111 41.2589C41.3655 43.7133 43.82 46.1678 46.2744 48.6222C32.5212 48.7069 18.7679 48.7069 5.01464 48.6222C4.44335 48.5587 4.12597 48.2413 4.06249 47.67C3.99903 45.3006 3.97787 42.9309 3.99902 40.5607ZM47.0361 40.6876C51.6271 40.5609 56.2397 40.5185 60.874 40.5607C60.9328 43.066 60.8693 45.5627 60.6836 48.0509C60.5136 48.3802 60.2385 48.5706 59.8584 48.6222C58.2503 48.7069 56.6423 48.7069 55.0342 48.6222C52.3849 45.9517 49.7189 43.3069 47.0361 40.6876ZM47.7978 44.6232C51.9766 48.6114 56.1026 52.6739 60.1758 56.8107C60.5307 57.6241 60.2768 58.1319 59.4141 58.3341C59.2075 58.3182 59.0171 58.2548 58.8428 58.1437C54.8015 54.1024 50.76 50.061 46.7187 46.0197C46.6341 45.935 46.6341 45.8504 46.7187 45.7657C47.1044 45.4015 47.4641 45.0207 47.7978 44.6232ZM27.2314 50.7169C30.7014 50.7169 34.1716 50.7169 37.6416 50.7169C38.1643 54.1071 38.7145 57.4924 39.292 60.8732C34.7217 60.8732 30.1514 60.8732 25.581 60.8732C26.1586 57.4924 26.7088 54.1071 27.2314 50.7169Z" fill="black"/>
<path opacity="0.999" fill-rule="evenodd" clip-rule="evenodd" d="M6.5381 6.0301C7.98026 5.92981 8.40343 6.54342 7.80763 7.87092C6.47006 8.37835 5.89877 7.93401 6.09376 6.53791C6.18132 6.30302 6.32944 6.13374 6.5381 6.0301Z" fill="black"/>
<path opacity="0.999" fill-rule="evenodd" clip-rule="evenodd" d="M10.6006 6.0301C12.0428 5.92981 12.4659 6.54342 11.8701 7.87092C10.5326 8.37835 9.96127 7.93401 10.1563 6.53791C10.2438 6.30302 10.3919 6.13374 10.6006 6.0301Z" fill="black"/>
<path opacity="0.999" fill-rule="evenodd" clip-rule="evenodd" d="M14.6631 6.0301C16.1053 5.92981 16.5284 6.54342 15.9326 7.87092C14.595 8.37835 14.0237 7.93401 14.2187 6.53791C14.3063 6.30302 14.4544 6.13374 14.6631 6.0301Z" fill="black"/>
<path fill-rule="evenodd" clip-rule="evenodd" d="M6.53809 14.1544C7.55459 14.1333 8.57021 14.1544 9.58496 14.2179C9.96785 14.412 10.1371 14.7294 10.0928 15.17C10.105 15.478 10.0204 15.7531 9.83887 15.9952C9.26301 16.1703 8.67056 16.2337 8.06153 16.1856C8.08254 16.6952 8.06137 17.203 7.99805 17.7091C7.80399 18.092 7.48661 18.2612 7.0459 18.2169C6.73793 18.2291 6.46286 18.1445 6.22071 17.963C6.01673 16.8758 5.97442 15.7756 6.09375 14.6622C6.18131 14.4273 6.32943 14.258 6.53809 14.1544Z" fill="black"/>
<path fill-rule="evenodd" clip-rule="evenodd" d="M12.6318 14.1544C13.6484 14.1333 14.664 14.1544 15.6787 14.2179C15.9114 14.2813 16.0596 14.4295 16.1231 14.6622C16.2077 15.0008 16.2077 15.3392 16.1231 15.6778C16.0596 15.9105 15.9114 16.0587 15.6787 16.1222C14.6631 16.2068 13.6475 16.2068 12.6318 16.1222C12.249 15.928 12.0797 15.6107 12.124 15.17C12.0964 14.7173 12.2657 14.3788 12.6318 14.1544Z" fill="black"/>
<path fill-rule="evenodd" clip-rule="evenodd" d="M18.7256 14.1544C19.7421 14.1333 20.7577 14.1544 21.7725 14.2179C22.0052 14.2813 22.1533 14.4295 22.2168 14.6622C22.3015 15.0008 22.3015 15.3392 22.2168 15.6778C22.1533 15.9105 22.0052 16.0587 21.7725 16.1222C20.7568 16.2068 19.7412 16.2068 18.7256 16.1222C18.3427 15.928 18.1735 15.6107 18.2178 15.17C18.1901 14.7173 18.3595 14.3788 18.7256 14.1544Z" fill="black"/>
<path fill-rule="evenodd" clip-rule="evenodd" d="M24.8193 14.1544C25.8359 14.1333 26.8515 14.1544 27.8662 14.2179C27.9825 14.2653 28.0884 14.3288 28.1836 14.4083C28.3244 14.9867 28.3879 15.5791 28.374 16.1856C28.3528 16.6934 28.3317 17.2013 28.3105 17.7091C28.1164 18.092 27.7991 18.2612 27.3584 18.2169C27.0504 18.2291 26.7753 18.1445 26.5332 17.963C26.3581 17.3871 26.2947 16.7946 26.3428 16.1856C25.8332 16.2067 25.3254 16.1855 24.8193 16.1222C24.703 16.0747 24.5972 16.0112 24.502 15.9317C24.1751 15.2378 24.2808 14.6453 24.8193 14.1544Z" fill="black"/>
<path fill-rule="evenodd" clip-rule="evenodd" d="M6.53809 20.2499C6.87925 20.2291 7.2178 20.2503 7.55371 20.3134C7.78646 20.3769 7.93457 20.525 7.99805 20.7577C8.08269 21.7734 8.08269 22.789 7.99805 23.8046C7.93457 24.0373 7.78646 24.1855 7.55371 24.2489C7.21517 24.3336 6.87663 24.3336 6.53809 24.2489C6.30535 24.1855 6.15723 24.0373 6.09375 23.8046C6.00911 22.789 6.00911 21.7734 6.09375 20.7577C6.18131 20.5229 6.32943 20.3535 6.53809 20.2499Z" fill="black"/>
<path fill-rule="evenodd" clip-rule="evenodd" d="M26.8506 20.2499C27.1917 20.2291 27.5303 20.2503 27.8662 20.3134C28.0989 20.3769 28.2471 20.525 28.3105 20.7577C28.3952 21.7734 28.3952 22.789 28.3105 23.8046C28.2471 24.0373 28.0989 24.1855 27.8662 24.2489C27.5276 24.3336 27.1892 24.3336 26.8506 24.2489C26.6179 24.1855 26.4697 24.0373 26.4063 23.8046C26.3216 22.789 26.3216 21.7734 26.4063 20.7577C26.4938 20.5229 26.6419 20.3535 26.8506 20.2499Z" fill="black"/>
<path fill-rule="evenodd" clip-rule="evenodd" d="M30.9131 24.3107C33.2833 24.2895 35.653 24.3107 38.0225 24.3742C38.2552 24.4376 38.4033 24.5858 38.4668 24.8185C38.5515 25.1571 38.5515 25.4955 38.4668 25.8341C38.4033 26.0668 38.2552 26.215 38.0225 26.2785C35.6526 26.3631 33.2829 26.3631 30.9131 26.2785C30.5302 26.0843 30.361 25.767 30.4053 25.3263C30.3776 24.8736 30.547 24.5351 30.9131 24.3107Z" fill="black"/>
<path fill-rule="evenodd" clip-rule="evenodd" d="M41.0693 24.3107C46.8248 24.2895 52.5799 24.3107 58.335 24.3742C58.7178 24.5683 58.8871 24.8857 58.8428 25.3263C58.8871 25.767 58.7178 26.0843 58.335 26.2785C52.5798 26.3631 46.8245 26.3631 41.0693 26.2785C40.6864 26.0843 40.5172 25.767 40.5615 25.3263C40.5338 24.8736 40.7032 24.5351 41.0693 24.3107Z" fill="black"/>
<path fill-rule="evenodd" clip-rule="evenodd" d="M6.53809 26.3437C6.87925 26.3229 7.2178 26.3441 7.55371 26.4072C7.78646 26.4706 7.93457 26.6188 7.99805 26.8515C8.08269 27.8671 8.08269 28.8827 7.99805 29.8984C7.93457 30.1311 7.78646 30.2792 7.55371 30.3427C7.21517 30.4274 6.87663 30.4274 6.53809 30.3427C6.30535 30.2792 6.15723 30.1311 6.09375 29.8984C6.00911 28.8827 6.00911 27.8671 6.09375 26.8515C6.18131 26.6166 6.32943 26.4473 6.53809 26.3437Z" fill="black"/>
<path fill-rule="evenodd" clip-rule="evenodd" d="M26.8506 26.3437C27.1917 26.3229 27.5303 26.3441 27.8662 26.4072C28.0989 26.4706 28.2471 26.6188 28.3105 26.8515C28.3952 27.8671 28.3952 28.8827 28.3105 29.8984C28.2471 30.1311 28.0989 30.2792 27.8662 30.3427C27.5276 30.4274 27.1892 30.4274 26.8506 30.3427C26.6179 30.2792 26.4697 30.1311 26.4063 29.8984C26.3216 28.8827 26.3216 27.8671 26.4063 26.8515C26.4938 26.6166 26.6419 26.4473 26.8506 26.3437Z" fill="black"/>
<path fill-rule="evenodd" clip-rule="evenodd" d="M43.1006 28.3732C48.1788 28.352 53.257 28.3732 58.335 28.4367C58.7178 28.6308 58.8871 28.9482 58.8428 29.3888C58.8871 29.8295 58.7178 30.1468 58.335 30.341C53.2568 30.4256 48.1787 30.4256 43.1006 30.341C42.7177 30.1468 42.5485 29.8295 42.5928 29.3888C42.5651 28.9361 42.7345 28.5976 43.1006 28.3732Z" fill="black"/>
<path fill-rule="evenodd" clip-rule="evenodd" d="M6.53809 32.4359C7.01503 32.3815 7.45936 32.466 7.8711 32.6898C8.04615 33.2657 8.10963 33.8582 8.06153 34.4672C8.57109 34.4461 9.0789 34.4673 9.58496 34.5306C9.96785 34.7248 10.1371 35.0421 10.0928 35.4828C10.105 35.7908 10.0204 36.0659 9.83887 36.308C9.26053 36.4488 8.66808 36.5123 8.06153 36.4984C7.55371 36.4772 7.0459 36.4561 6.53809 36.4349C6.42177 36.3875 6.31597 36.324 6.22071 36.2445C6.01673 35.1573 5.97442 34.0571 6.09375 32.9437C6.18131 32.7089 6.32943 32.5395 6.53809 32.4359Z" fill="#010001"/>
<path fill-rule="evenodd" clip-rule="evenodd" d="M26.8506 32.4374C27.1917 32.4166 27.5303 32.4378 27.8662 32.5009C28.0989 32.5644 28.2471 32.7125 28.3105 32.9452C28.3952 33.9609 28.3952 34.9765 28.3105 35.9921C28.2471 36.2248 28.0989 36.373 27.8662 36.4364C26.7528 36.5558 25.6526 36.5135 24.5654 36.3095C24.2554 35.7951 24.2342 35.2661 24.5019 34.7226C24.5972 34.6431 24.703 34.5796 24.8193 34.5322C25.3254 34.4688 25.8332 34.4476 26.3428 34.4687C26.3217 33.9591 26.3429 33.4513 26.4062 32.9452C26.4938 32.7104 26.6419 32.541 26.8506 32.4374Z" fill="#010001"/>
<path opacity="0.999" fill-rule="evenodd" clip-rule="evenodd" d="M12.6318 34.4669C13.6484 34.4458 14.664 34.4669 15.6787 34.5304C15.9114 34.5938 16.0596 34.742 16.1231 34.9747C16.2077 35.3133 16.2077 35.6517 16.1231 35.9903C16.0596 36.223 15.9114 36.3712 15.6787 36.4347C14.6631 36.5193 13.6475 36.5193 12.6318 36.4347C12.249 36.2405 12.0797 35.9232 12.124 35.4825C12.0964 35.0298 12.2657 34.6913 12.6318 34.4669Z" fill="#010002"/>
<path opacity="0.999" fill-rule="evenodd" clip-rule="evenodd" d="M18.7256 34.4669C19.7421 34.4458 20.7577 34.4669 21.7725 34.5304C22.0052 34.5938 22.1533 34.742 22.2168 34.9747C22.3015 35.3133 22.3015 35.6517 22.2168 35.9903C22.1533 36.223 22.0052 36.3712 21.7725 36.4347C20.7568 36.5193 19.7412 36.5193 18.7256 36.4347C18.3427 36.2405 18.1735 35.9232 18.2178 35.4825C18.1901 35.0298 18.3595 34.6913 18.7256 34.4669Z" fill="#010002"/>
<path opacity="0.998" fill-rule="evenodd" clip-rule="evenodd" d="M29.8975 42.5919C31.5906 42.5707 33.2834 42.5919 34.9756 42.6554C35.2083 42.7189 35.3564 42.867 35.4199 43.0997C35.5046 43.4383 35.5046 43.7768 35.4199 44.1154C35.3564 44.3481 35.2083 44.4962 34.9756 44.5597C33.2829 44.6444 31.5901 44.6444 29.8975 44.5597C29.5146 44.3656 29.3453 44.0482 29.3896 43.6076C29.362 43.1548 29.5313 42.8164 29.8975 42.5919Z" fill="#000103"/>
</mask>
<g mask="url(#mask0_801_609)">
<rect x="1.39648" y="-0.126953" width="65" height="65" fill="url(#paint0_linear_801_609)"/>
</g>
<defs>
<linearGradient id="paint0_linear_801_609" x1="33.8965" y1="-0.126953" x2="33.8965" y2="64.873" gradientUnits="userSpaceOnUse">
<stop offset="0.0520833" stop-color="#1BA5D9"/>
<stop offset="0.994792" stop-color="#6DBE7F"/>
</linearGradient>
</defs>
</svg>
