<svg width="65" height="65" viewBox="0 0 65 65" fill="none" xmlns="http://www.w3.org/2000/svg">
<mask id="mask0_801_652" style="mask-type:alpha" maskUnits="userSpaceOnUse" x="0" y="0" width="65" height="65">
<g clip-path="url(#clip0_801_652)">
<path opacity="0.998" fill-rule="evenodd" clip-rule="evenodd" d="M38.0225 -0.0625C38.361 -0.0625 38.6995 -0.0625 39.0381 -0.0625C41.4124 0.94836 43.8245 1.90051 46.2744 2.79395C46.3802 2.89974 46.486 3.00554 46.5918 3.11133C46.6705 4.56008 46.6705 5.99889 46.5918 7.42773C48.4476 8.86021 50.1403 10.4683 51.6699 12.252C52.9624 12.1279 54.253 12.001 55.542 11.8711C55.8104 11.9389 56.0432 12.0658 56.2402 12.252C57.3923 14.8092 58.4714 17.3905 59.4775 19.9961C59.4563 20.1653 59.4353 20.3347 59.4141 20.5039C58.3447 21.4288 57.3503 22.4232 56.4307 23.4873C56.8332 25.6884 56.8755 27.8889 56.5576 30.0889C57.632 30.9514 58.6689 31.8613 59.668 32.8184C59.7791 32.9927 59.8425 33.1831 59.8584 33.3896C58.8894 36.0004 57.8949 38.603 56.875 41.1973C56.5823 41.5004 56.2226 41.6274 55.7959 41.5781C54.6128 41.4485 53.428 41.4273 52.2412 41.5146C50.9153 43.285 49.3919 44.8719 47.6709 46.2754C47.5828 47.5447 47.6251 48.8142 47.7979 50.084C47.8006 50.3969 47.7372 50.6931 47.6074 50.9727C45.2936 52.0769 42.9449 53.0925 40.5615 54.0195C40.5827 55.7127 40.5615 57.4055 40.4981 59.0977C40.3849 59.7055 40.1098 60.2133 39.6729 60.6211C39.4944 60.6811 39.4097 60.8081 39.4189 61.002C39.3343 61.0442 39.2497 61.0866 39.165 61.1289C38.9712 61.1196 38.8442 61.2043 38.7842 61.3828C38.6138 61.547 38.4022 61.6527 38.1494 61.7002C36.5419 61.7637 34.9338 61.7849 33.3252 61.7637C33.3463 62.6534 33.3252 63.542 33.2617 64.4297C33.1777 64.6181 33.0718 64.7873 32.9443 64.9375C32.6058 64.9375 32.2673 64.9375 31.9287 64.9375C31.8013 64.7873 31.6954 64.6181 31.6113 64.4297C31.5479 63.542 31.5268 62.6534 31.5479 61.7637C29.9392 61.7849 28.3311 61.7637 26.7236 61.7002C26.2539 61.5932 25.8731 61.3605 25.5811 61.002C25.4964 60.8327 25.3694 60.7058 25.2002 60.6211C24.7632 60.2133 24.4881 59.7055 24.375 59.0977C24.3115 57.3631 24.2903 55.6282 24.3115 53.8926C22.2353 53.2456 20.2253 52.4416 18.2813 51.4805C18.1783 50.0357 18.1994 48.597 18.3447 47.1641C16.469 45.8173 14.8186 44.2304 13.3936 42.4033C12.2319 42.4333 11.0681 42.4968 9.90235 42.5938C9.58497 42.5725 9.26758 42.5515 8.9502 42.5303C8.84761 42.4912 8.76298 42.4277 8.69629 42.3398C7.47134 39.7848 6.37107 37.1822 5.39551 34.5322C5.41668 34.3841 5.43783 34.236 5.45899 34.0879C6.46188 33.085 7.45635 32.0905 8.44239 31.1045C8.03984 28.9034 7.99753 26.7029 8.31543 24.5029C7.26675 23.608 6.22996 22.6982 5.20508 21.7734C5.03078 21.4948 4.98846 21.1985 5.07813 20.8848C6.05144 18.388 7.02474 15.8913 7.99805 13.3945C8.11263 13.2421 8.26074 13.1362 8.44239 13.0771C9.83872 13.0821 11.2352 13.0821 12.6318 13.0771C13.9979 11.2877 15.5425 9.65843 17.2656 8.18945C17.2834 6.96026 17.2199 5.73304 17.0752 4.50781C17.0565 4.15826 17.1412 3.84088 17.3291 3.55566C19.8962 2.34598 22.4988 1.22456 25.1367 0.191406C25.3433 0.207294 25.5337 0.270771 25.708 0.381836C26.643 1.27437 27.5317 2.20535 28.374 3.1748C30.6985 2.98896 33.026 2.94664 35.3565 3.04785C36.2243 1.9899 37.113 0.953115 38.0225 -0.0625ZM38.6572 1.8418C40.7436 2.55155 42.8172 3.31327 44.8779 4.12695C44.8305 5.61317 44.8939 7.09428 45.0684 8.57031C47.1944 9.9346 48.993 11.6485 50.4639 13.7119C50.893 13.8495 51.3373 13.913 51.7969 13.9023C52.8404 13.8318 53.8771 13.7683 54.9072 13.7119C55.8447 15.6774 56.7333 17.6664 57.5732 19.6787C56.7496 20.6716 55.8398 21.5815 54.8438 22.4082C54.7221 22.6239 54.6587 22.8567 54.6533 23.1064C55.0389 25.7402 55.1448 28.3852 54.9707 31.041C56.0252 31.8627 57.0196 32.7513 57.9541 33.707C57.1587 35.6909 56.376 37.6799 55.6055 39.6738C54.4497 39.8266 53.2859 39.8266 52.1143 39.6738C51.8013 39.671 51.5051 39.7345 51.2256 39.8643C49.819 42.0329 48.0627 43.8737 45.957 45.3867C45.8255 45.6876 45.762 46.005 45.7666 46.3389C45.8952 47.5018 45.9587 48.6655 45.957 49.8301C44.1784 50.6455 42.3799 51.4072 40.5615 52.1152C40.5403 50.2951 40.5615 48.4754 40.625 46.6562C40.8921 44.584 41.6538 42.722 42.9102 41.0703C48.8829 35.7195 50.7027 29.2026 48.3691 21.5195C45.1411 14.0739 39.4494 10.4133 31.294 10.5381C22.929 11.5398 17.7451 16.1313 15.7422 24.3125C14.7492 31.0428 16.8228 36.6287 21.9629 41.0703C23.269 42.7022 24.0307 44.5641 24.2481 46.6562C24.3327 48.4759 24.3327 50.2956 24.2481 52.1152C22.8069 51.5108 21.3469 50.9607 19.8682 50.4648C19.921 49.5773 19.9634 48.6886 19.9951 47.7988C20.009 47.1922 19.9455 46.5999 19.8047 46.0215C17.6361 44.6148 15.7953 42.8586 14.2822 40.7529C14.0918 40.6895 13.9014 40.626 13.7109 40.5625C12.4243 40.7708 11.1337 40.8131 9.83887 40.6895C9.00997 38.7566 8.16361 36.8311 7.29981 34.9131C8.20408 33.8817 9.15623 32.8872 10.1563 31.9297C9.99642 30.351 9.89063 28.7641 9.83887 27.1689C9.90094 25.9621 9.9221 24.7561 9.90235 23.5508C8.86682 22.7055 7.87235 21.8169 6.91895 20.8848C7.71114 18.8675 8.51517 16.8574 9.33106 14.8545C10.5643 14.752 11.7915 14.7731 13.0127 14.918C13.2177 14.8349 13.4294 14.7715 13.6475 14.7275C15.0541 12.559 16.8104 10.7182 18.916 9.20508C19.0475 8.90419 19.111 8.5868 19.1064 8.25293C19.0282 7.27901 18.9437 6.3057 18.8525 5.33301C18.8581 5.10904 18.9005 4.89744 18.9795 4.69824C20.9567 3.84708 22.9244 2.97958 24.8828 2.0957C25.835 3.04785 26.7871 4 27.7393 4.95215C29.3445 4.86077 30.9526 4.75498 32.5635 4.63477C33.7081 4.72547 34.8507 4.78895 35.9912 4.8252C36.9528 3.89688 37.8414 2.9024 38.6572 1.8418ZM30.6592 12.252C36.4085 11.8605 41.0847 13.8918 44.6875 18.3457C47.8849 22.9558 48.5197 27.9069 46.5918 33.1992C45.9813 34.675 45.1773 36.0293 44.1797 37.2617C40.3028 40.4461 38.5044 44.5509 38.7842 49.5762C37.9802 49.5762 37.1761 49.5762 36.3721 49.5762C36.3509 45.9366 36.3721 42.2973 36.4356 38.6582C36.626 38.2139 36.9434 37.8965 37.3877 37.7061C39.7933 37.6067 41.1053 36.3583 41.3232 33.9609C43.5684 32.8317 44.0974 31.1389 42.9102 28.8828C41.4397 27.4575 39.8527 27.3094 38.1494 28.4385C37.0929 29.6172 36.8602 30.9502 37.4512 32.4375C37.9068 33.2048 38.5627 33.7126 39.4189 33.9609C39.5996 34.8473 39.261 35.4609 38.4033 35.8018C36.6542 35.7774 35.4481 36.5603 34.7852 38.1504C34.5987 41.9526 34.5352 45.7612 34.5947 49.5762C34.1716 49.5762 33.7483 49.5762 33.3252 49.5762C33.304 41.8742 33.3252 34.1724 33.3887 26.4707C35.2314 25.7306 35.9507 24.3764 35.5469 22.4082C34.6526 20.3852 33.1504 19.7292 31.04 20.4404C29.4742 21.3518 28.9452 22.6848 29.4531 24.4395C29.7884 25.4518 30.4655 26.1288 31.4844 26.4707C31.5479 34.1724 31.5691 41.8742 31.5479 49.5762C31.1247 49.5762 30.7015 49.5762 30.2783 49.5762C30.3369 45.72 30.2734 41.8691 30.0879 38.0234C29.8321 37.3863 29.43 36.8574 28.8818 36.4365C28.0332 36.0445 27.1445 35.7906 26.2158 35.6748C25.6365 35.2268 25.425 34.6555 25.5811 33.9609C27.3325 33.2947 28.073 32.0252 27.8027 30.1523C27.1214 28.1714 25.746 27.3884 23.6768 27.8037C21.4929 28.8536 20.9216 30.4828 21.9629 32.6914C22.4088 33.2855 22.98 33.7087 23.6768 33.9609C23.6634 35.6518 24.4252 36.8156 25.9619 37.4521C26.6669 37.5282 27.3439 37.6975 27.9932 37.96C28.1888 38.1604 28.337 38.3933 28.4375 38.6582C28.501 42.2973 28.5222 45.9366 28.501 49.5762C27.697 49.5762 26.8929 49.5762 26.0889 49.5762C26.3637 45.8045 25.3269 42.4615 22.9785 39.5469C17.3007 34.434 15.8195 28.2978 18.5352 21.1387C21.075 16.1144 25.1163 13.1522 30.6592 12.252ZM31.9287 21.9004C33.6878 21.8643 34.2591 22.6683 33.6426 24.3125C32.661 25.0731 31.8146 24.9461 31.1035 23.9316C30.8575 23.0289 31.1326 22.3518 31.9287 21.9004ZM24.1846 29.3906C25.8304 29.4023 26.4017 30.164 25.8984 31.6758C25.3094 32.4096 24.6111 32.5576 23.8037 32.1201C22.8908 31.0601 23.0177 30.1503 24.1846 29.3906ZM39.9268 29.3906C41.5647 29.4819 42.0937 30.286 41.5137 31.8027C40.8217 32.5001 40.0811 32.5636 39.292 31.9932C38.5493 30.8984 38.761 30.0308 39.9268 29.3906ZM38.7842 51.6074C38.7842 52.073 38.7842 52.5384 38.7842 53.0039C36.5615 52.962 34.361 53.0043 32.1826 53.1309C31.5578 53.5351 31.5155 54.0217 32.0557 54.5908C34.2982 54.6543 36.5409 54.6755 38.7842 54.6543C38.7842 55.2891 38.7842 55.9238 38.7842 56.5586C38.0636 56.5375 37.3442 56.5587 36.626 56.6221C36.5554 56.6707 36.5131 56.7342 36.499 56.8125C36.3053 56.9384 36.2206 57.1289 36.2451 57.3838C36.2319 57.6561 36.3166 57.8889 36.499 58.082C37.253 58.2035 38.0147 58.2458 38.7842 58.209C38.8412 59.0886 38.4603 59.7022 37.6416 60.0498C34.1716 60.1345 30.7015 60.1345 27.2315 60.0498C26.4127 59.7022 26.0319 59.0886 26.0889 58.209C28.5014 58.2302 30.9135 58.209 33.3252 58.1455C33.9678 57.6537 33.9678 57.1671 33.3252 56.6855C30.9352 56.559 28.5231 56.5167 26.0889 56.5586C26.0889 55.9238 26.0889 55.2891 26.0889 54.6543C26.894 54.6754 27.698 54.6543 28.501 54.5908C29.0283 54.0324 28.9861 53.5245 28.374 53.0674C27.6135 53.004 26.8517 52.9828 26.0889 53.0039C26.0889 52.4114 26.0889 51.8191 26.0889 51.2266C30.3206 51.2266 34.5525 51.2266 38.7842 51.2266C38.7842 51.3535 38.7842 51.4805 38.7842 51.6074Z" fill="#040305"/>
<path opacity="0.953" fill-rule="evenodd" clip-rule="evenodd" d="M38.7842 51.6055C38.909 52.0876 38.9514 52.5954 38.9111 53.1289C36.6683 53.1289 34.4255 53.1289 32.1826 53.1289C34.361 53.0023 36.5615 52.9601 38.7842 53.002C38.7842 52.5364 38.7842 52.071 38.7842 51.6055Z" fill="#3A2C56"/>
<path opacity="0.784" fill-rule="evenodd" clip-rule="evenodd" d="M26.0889 54.6523C26.0889 55.2871 26.0889 55.9219 26.0889 56.5566C28.5231 56.5147 30.9352 56.557 33.3252 56.6836C30.8708 56.6836 28.4163 56.6836 25.9619 56.6836C25.9211 55.9821 25.9634 55.3049 26.0889 54.6523Z" fill="#714DA0"/>
<path opacity="0.746" fill-rule="evenodd" clip-rule="evenodd" d="M38.7842 54.6523C38.9096 55.3049 38.9519 55.9821 38.9111 56.6836C38.0996 56.6517 37.2957 56.694 36.499 56.8105C36.5131 56.7322 36.5554 56.6687 36.626 56.6201C37.3442 56.5568 38.0636 56.5356 38.7842 56.5566C38.7842 55.9219 38.7842 55.2871 38.7842 54.6523Z" fill="#7854B4"/>
<path opacity="0.01" fill-rule="evenodd" clip-rule="evenodd" d="M25.2002 60.6211C25.3694 60.7058 25.4964 60.8327 25.5811 61.002C25.3271 61.002 25.2002 60.875 25.2002 60.6211Z" fill="#8767D4"/>
<path opacity="0.01" fill-rule="evenodd" clip-rule="evenodd" d="M39.6729 60.6211C39.6821 60.815 39.5975 60.9419 39.419 61.002C39.4097 60.8081 39.4944 60.6811 39.6729 60.6211Z" fill="#906ADF"/>
<path opacity="0.012" fill-rule="evenodd" clip-rule="evenodd" d="M39.165 61.1276C39.105 61.3061 38.978 61.3908 38.7842 61.3815C38.8442 61.203 38.9712 61.1184 39.165 61.1276Z" fill="#8F5CD2"/>
</g>
</mask>
<g mask="url(#mask0_801_652)">
<rect x="3.04688" width="65" height="65" fill="url(#paint0_linear_801_652)"/>
</g>
<defs>
<linearGradient id="paint0_linear_801_652" x1="35.5469" y1="0" x2="35.5469" y2="65" gradientUnits="userSpaceOnUse">
<stop stop-color="#1BA5D9"/>
<stop offset="1" stop-color="#6DBE7F"/>
</linearGradient>
<clipPath id="clip0_801_652">
<rect width="65" height="65" fill="white"/>
</clipPath>
</defs>
</svg>
