<svg width="65" height="66" viewBox="0 0 65 66" fill="none" xmlns="http://www.w3.org/2000/svg">
<mask id="mask0_801_672" style="mask-type:alpha" maskUnits="userSpaceOnUse" x="0" y="0" width="65" height="66">
<path fill-rule="evenodd" clip-rule="evenodd" d="M48.9404 2.98907C48.9404 3.03148 48.9404 3.07389 48.9404 3.11629C49.0516 3.09964 49.1363 3.14205 49.1943 3.24351C49.2969 3.55204 49.4239 3.84887 49.5752 4.13403C49.7021 4.30365 49.8291 4.30365 49.9561 4.13403C50.0882 4.45097 50.194 4.45097 50.2734 4.13403C50.9481 4.23143 51.5618 4.29504 52.1143 4.32486C52.1723 4.27219 52.2147 4.20858 52.2412 4.13403C51.9764 4.00825 51.7648 3.83863 51.6064 3.62516C52.2958 3.93349 52.994 4.23032 53.7012 4.51569C54.6028 4.05241 55.5127 3.64955 56.4307 3.30712C58.231 5.08993 60.0083 6.89219 61.7627 8.71387C61.3396 9.56199 60.9163 10.4101 60.4932 11.2582C60.7667 12.0623 61.1476 12.8044 61.6357 13.4845C62.5429 13.7027 63.4104 14.0207 64.2383 14.4387C64.323 16.983 64.323 19.5274 64.2383 22.0717C63.3175 22.4782 62.3865 22.8598 61.4453 23.2167C61.2198 23.8946 60.9447 24.552 60.6201 25.1885C60.9277 25.9959 61.2874 26.7804 61.6992 27.5421C61.7839 27.7117 61.7839 27.8814 61.6992 28.0509C59.9854 29.7684 58.2715 31.4858 56.5576 33.2033C56.346 33.2881 56.1345 33.2881 55.9229 33.2033C55.168 32.9099 54.4487 32.5495 53.7646 32.1219C53.143 32.4123 52.5082 32.6668 51.8604 32.8852C51.5078 33.8556 51.1269 34.8098 50.7178 35.7476C48.2716 35.9548 45.8171 35.9972 43.3545 35.8748C43.0782 35.8541 42.8455 35.7481 42.6562 35.5568C42.4053 34.6524 42.0879 33.7831 41.7041 32.9488C41.07 32.716 40.4352 32.4828 39.7998 32.2491C38.954 32.6729 38.1078 33.0969 37.2607 33.5213C35.3582 31.6784 33.4751 29.8125 31.6113 27.9237C31.8435 27.1397 32.2033 26.3976 32.6904 25.6974C22.9152 25.6338 13.1398 25.6126 3.36426 25.6338C3.18972 36.0629 3.21089 46.4947 3.42773 56.9293C3.51743 57.1305 3.62323 57.3213 3.74512 57.5018C15.6377 57.5259 27.5289 57.5895 39.4189 57.6926C39.1753 55.0698 40.064 52.9495 42.085 51.3318C42.2241 51.1278 42.3935 50.937 42.5928 50.7593C43.5374 50.2526 44.5319 49.8922 45.5762 49.6779C45.677 45.86 45.6558 42.0435 45.5127 38.2284C45.4858 37.9089 45.5705 37.6332 45.7666 37.4014C46.4436 37.3166 47.1208 37.3166 47.7979 37.4014C47.8613 37.465 47.9248 37.5287 47.9883 37.5923C47.9136 41.6187 47.9136 45.6473 47.9883 49.6779C51.3302 50.5248 53.3192 52.6452 53.9551 56.0388C54.1431 59.748 52.5562 62.3559 49.1943 63.8627C45.3888 64.8601 42.4265 63.6939 40.3076 60.3642C28.078 60.2582 15.8482 60.1946 3.61816 60.1734C2.19717 59.7672 1.28734 58.8554 0.888672 57.4382C0.867513 56.4841 0.846355 55.5299 0.825195 54.5758C0.942094 40.9424 0.963252 27.309 0.888672 13.6754C0.920447 13.2614 1.0474 12.8797 1.26953 12.5304C1.8506 11.6925 2.63348 11.1624 3.61816 10.9402C13.3093 10.8803 23.0001 10.8803 32.6904 10.9402C32.7327 10.8978 32.7751 10.8554 32.8174 10.813C32.3338 10.0798 32.0164 9.29525 31.8652 8.45943C33.5791 6.74199 35.293 5.02456 37.0068 3.30712C37.2185 3.2223 37.43 3.2223 37.6416 3.30712C38.372 3.72615 39.1126 4.129 39.8633 4.51569C40.5403 4.16579 41.2386 3.86894 41.958 3.62516C41.879 3.85861 41.7097 4.00703 41.4502 4.07042C41.5137 4.09163 41.5771 4.11283 41.6406 4.13403C42.4812 4.12237 43.2641 4.12237 43.9893 4.13403C44.1697 3.72957 44.3813 3.34792 44.624 2.98907C44.7883 2.88859 44.9365 2.76137 45.0684 2.60742C45.1158 2.72398 45.1793 2.83 45.2588 2.92547C45.6396 2.94667 46.0205 2.96787 46.4014 2.98907C46.838 2.98226 47.24 2.89744 47.6074 2.73464C47.6497 2.81946 47.6921 2.90426 47.7344 2.98907C47.8218 2.88009 47.9276 2.79528 48.0518 2.73464C48.3086 2.94751 48.6048 3.03232 48.9404 2.98907ZM48.9404 3.11629C49.1615 3.95059 49.4578 4.75629 49.8291 5.53343C51.1837 5.87987 52.4743 6.38874 53.7012 7.06004C54.3649 6.75932 55.0207 6.44128 55.6689 6.10591C55.7959 6.02109 55.9229 6.02109 56.0498 6.10591C57.002 7.06004 57.9541 8.01417 58.9062 8.9683C58.9909 9.09552 58.9909 9.22274 58.9062 9.34996C58.5687 10.005 58.2513 10.6623 57.9541 11.3218C58.1943 11.8935 58.4482 12.4659 58.7158 13.0393C58.6893 13.1138 58.7738 12.9866 58.7158 13.0393C59.0234 13.667 59.1292 14.515 59.2871 15.202C60.0656 15.6106 60.8908 15.9074 61.7627 16.0925C61.7627 17.5342 61.7627 18.9761 61.7627 20.4179C60.8743 20.5563 60.0491 20.8532 59.2871 21.3084C58.8689 22.656 58.3399 23.9494 57.7002 25.1885C57.9688 25.7482 58.2862 26.2783 58.6523 26.7788C58.7782 27.0265 58.8206 27.2809 58.7793 27.5421C57.7849 28.369 56.875 29.2808 56.0498 30.2773C55.305 30.0966 54.5855 29.7997 53.8916 29.3867C53.2991 29.444 52.749 29.656 52.2412 30.0228C51.3867 30.2942 50.5403 30.591 49.7021 30.9133C49.3587 31.6282 49.0626 32.3704 48.8135 33.1396C47.4613 33.288 46.1071 33.3091 44.751 33.2033C44.5118 32.4112 44.2156 31.6479 43.8623 30.9133C42.4709 30.4454 41.1379 29.873 39.8633 29.1959C39.2576 29.5311 38.644 29.8492 38.0225 30.15C37.8532 30.2349 37.6839 30.2349 37.5146 30.15C36.6472 29.2808 35.7796 28.4114 34.9121 27.5421C35.1367 26.6681 35.4329 25.8201 35.8008 24.9977C35.1281 23.8502 34.6202 22.6205 34.2773 21.3084C34.1716 21.2024 34.0657 21.0963 33.96 20.9904C33.2503 20.7862 32.5521 20.553 31.8652 20.2907C31.7806 18.9336 31.7806 17.5767 31.8652 16.2197C32.5521 15.9574 33.2503 15.7242 33.96 15.52C34.0657 15.414 34.1716 15.3079 34.2773 15.202C34.6045 13.9538 35.0699 12.7665 35.6738 11.6399C35.7585 11.4278 35.7585 11.2158 35.6738 11.0038C35.2661 10.4203 34.9064 9.80538 34.5947 9.15913C35.6316 8.12018 36.6683 7.08125 37.7051 6.0423C38.4682 6.56408 39.2934 6.88212 40.1807 6.99643C41.3234 6.40255 42.5084 5.91488 43.7354 5.53343C44.1104 4.76681 44.449 3.9823 44.751 3.1799C46.1468 3.11632 47.5433 3.09511 48.9404 3.11629ZM46.4014 7.82334C47.7661 7.78492 48.951 9.54476 50.21 10.0497C50.9495 10.3989 51.6689 10.7806 52.3682 11.1946C54.9759 13.6208 56.6686 16.1439 56.0498 19.7818C54.8293 24.1284 51.543 26.5879 57.9541 18.7004C52.5736 18.249 57.5459 19.6483 57.1289 14.2478C57.2993 9.7311 43.7365 8.73453 48.0518 7.44169C48.5834 7.41928 45.9174 7.92815 46.4014 7.82334ZM3.61816 13.5481C12.8012 13.5269 21.9841 13.5481 31.167 13.6117C30.5089 13.7465 29.8952 13.9798 29.3262 14.3114C29.2415 16.9406 29.2415 19.5697 29.3262 22.1989C29.8604 22.505 30.4317 22.7383 31.04 22.8986C21.8149 22.9622 12.5896 22.9835 3.36426 22.9622C3.34311 20.036 3.36426 17.11 3.42773 14.1842C3.55578 13.9902 3.61926 13.7781 3.61816 13.5481ZM7.55371 17.4919C8.01921 17.4919 8.4847 17.4919 8.9502 17.4919C8.9502 18.0008 8.9502 18.5096 8.9502 19.0185C8.4847 19.0185 8.01921 19.0185 7.55371 19.0185C7.55371 18.5096 7.55371 18.0008 7.55371 17.4919ZM11.4893 17.4919C11.9971 17.4919 12.5049 17.4919 13.0127 17.4919C12.9347 17.9543 12.8923 18.4208 12.8857 18.8913C12.4218 18.9475 11.9563 18.99 11.4893 19.0185C11.4893 18.5096 11.4893 18.0008 11.4893 17.4919ZM15.5518 17.4919C16.0596 17.4919 16.5674 17.4919 17.0752 17.4919C17.0752 18.0008 17.0752 18.5096 17.0752 19.0185C16.5674 19.0185 16.0596 19.0185 15.5518 19.0185C15.5518 18.5096 15.5518 18.0008 15.5518 17.4919ZM36.1182 51.0137C37.2944 51.0175 36.7866 52.9682 36.1182 53.9397C35.4637 54.1531 36.626 51.0137 33.4521 52.2223C33.5136 51.9296 30.8496 53.3672 36.1182 51.0137ZM45.6396 52.2223C48.167 51.8663 50.0079 52.7993 51.1621 55.0211C51.9911 57.7451 51.2082 59.8442 48.8135 61.3183C47.4593 61.7424 46.1052 61.7424 44.751 61.3183C42.1382 59.6771 41.4399 57.4084 42.6562 54.5122C43.3823 53.3798 44.3767 52.6165 45.6396 52.2223ZM45.8936 55.3391C47.0915 55.2157 48.5092 54.622 47.9883 55.7208C46.7964 55.8565 45.3788 56.4501 45.8936 55.3391Z" fill="black"/>
<path fill-rule="evenodd" clip-rule="evenodd" d="M51.6064 3.62496C51.7648 3.83843 52.1033 4.00805 52.3682 4.13383C52.3416 4.20838 52.1723 4.39921 52.1143 4.45187C51.5618 4.42205 51.0115 4.54927 50.3369 4.45187C50.2574 4.76881 50.0247 4.89603 49.8926 4.57909C49.7656 4.74871 49.5752 4.30345 49.4482 4.13383C49.2969 3.84867 49.17 3.55183 49.0674 3.24331C49.0094 3.14185 48.9247 3.09944 48.8135 3.11609C48.8135 3.07369 45.8936 3.03127 45.8936 2.98887C47.7979 1.20782 49.1759 2.26573 49.3213 2.41639C49.4151 2.27973 49.4786 2.7674 49.6387 2.73444C50.0632 2.82201 50.4863 2.90683 50.9082 2.98887C50.9231 2.80435 50.9019 2.61353 50.8447 2.41639C50.8214 2.24139 50.7367 2.13538 50.5908 2.09835C50.6747 1.83674 50.6325 1.5823 50.4639 1.33504C50.4748 1.20835 50.4324 1.10233 50.3369 1.017C47.8608 0.911535 45.4063 0.932737 42.9736 1.08061C42.7709 1.37929 42.6439 1.71854 42.5928 2.09835C42.4239 2.40127 42.5085 2.18923 42.7197 2.48C42.8859 2.1758 43.965 2.11219 44.0527 2.41639C44.3544 2.14147 47.1051 1.37817 47.4805 1.65309C47.6778 1.3443 44.7156 2.68009 44.8145 2.98887C44.5717 3.34771 44.4236 3.92019 44.2432 4.32466C43.518 4.31299 42.3542 4.12216 41.5137 4.13383C41.4502 4.11262 41.3867 4.09143 41.3232 4.07022C41.5827 4.00683 41.7521 3.8584 41.8311 3.62496C42.1516 2.74601 42.4479 1.85549 42.7197 0.953389C45.3435 0.783766 47.9671 0.783766 50.5908 0.953389C50.9073 1.84153 51.3304 2.73206 51.6064 3.62496Z" fill="#0A0303"/>
<path fill-rule="evenodd" clip-rule="evenodd" d="M50.5908 2.09819C50.7367 2.13522 50.8214 2.24123 50.8447 2.41623C50.9019 2.61337 50.9231 2.80419 50.9082 2.98871C50.4864 2.90667 50.0632 2.82185 49.6387 2.73427C49.4786 2.76724 49.3516 2.85205 49.2578 2.98871C49.1125 2.83804 48.9643 2.83804 48.8135 2.98871C48.4778 3.03195 48.1816 2.94715 47.9248 2.73427C47.8007 2.79492 47.6949 2.87972 47.6074 2.98871C47.5652 2.90389 47.5228 2.81909 47.4805 2.73427C47.1131 2.89707 46.711 2.98189 46.2744 2.98871C45.8936 2.9675 45.5127 2.94631 45.1318 2.9251C45.0524 2.82964 44.9889 2.72361 44.9414 2.60706C44.8095 2.761 44.6614 2.88822 44.4971 2.98871C44.3982 2.67993 44.25 2.67993 44.0527 2.98871C43.6773 2.71379 43.3388 2.71379 43.0371 2.98871C42.9494 2.68451 42.8224 2.68451 42.6563 2.98871C42.445 2.69794 42.4239 2.4011 42.5928 2.09819C43.202 2.023 43.7733 1.98059 44.3067 1.97097C44.3489 2.05578 44.3913 2.14059 44.4336 2.2254C44.5277 2.08031 44.6336 2.08031 44.751 2.2254C44.8388 2.15858 44.9023 2.07377 44.9414 1.97097C45.3855 2.06452 45.8086 2.06452 46.211 1.97097C46.3991 2.26116 46.6107 2.26116 46.8457 1.97097C47.0228 2.13821 47.1498 2.09579 47.2266 1.84375C47.3604 2.13045 47.5508 2.17286 47.7979 1.97097C47.9248 2.05578 48.0518 2.14059 48.1787 2.2254C48.221 2.14059 48.2634 2.05578 48.3057 1.97097C48.5817 2.26113 48.8356 2.26113 49.0674 1.97097C49.1196 2.06796 49.1406 2.19518 49.1309 2.35262C49.2155 2.2678 49.3001 2.183 49.3848 2.09819C49.7955 2.24226 50.1975 2.24226 50.5908 2.09819Z" fill="#190709"/>
<path fill-rule="evenodd" clip-rule="evenodd" d="M42.9736 1.08203C43.0096 1.18242 43.073 1.26723 43.1641 1.33647C43.5148 1.31182 43.8746 1.31182 44.2432 1.33647C44.4102 1.01486 44.5584 1.01486 44.6875 1.33647C45.2371 0.969337 45.7872 1.01174 46.3379 1.46368C46.4226 1.29406 46.5071 1.29406 46.5918 1.46368C46.632 1.23459 46.7167 1.19219 46.8457 1.33647C46.888 1.25165 46.9304 1.16684 46.9727 1.08203C47.0665 1.21869 47.1934 1.3035 47.3535 1.33647C47.8391 1.32976 48.3257 1.32976 48.8135 1.33647C49.0708 0.973965 49.2612 1.01637 49.3848 1.46368C49.5117 1.12444 49.6387 1.12444 49.7656 1.46368C49.9814 1.23483 50.2142 1.19242 50.4639 1.33647C50.6325 1.58373 50.6747 1.83816 50.5908 2.09977C50.1975 2.24385 49.7955 2.24385 49.3848 2.09977C49.3001 2.18459 49.2155 2.26939 49.1309 2.35421C49.1406 2.19676 49.1196 2.06955 49.0674 1.97255C48.8356 2.26271 48.5817 2.26271 48.3057 1.97255C48.2634 2.05737 48.221 2.14217 48.1787 2.22699C48.0518 2.14217 47.9248 2.05737 47.7979 1.97255C47.5508 2.17445 47.3604 2.13203 47.2266 1.84534C47.1498 2.09738 47.0228 2.13979 46.8457 1.97255C46.6107 2.26275 46.3991 2.26275 46.2109 1.97255C45.8086 2.06611 45.3855 2.06611 44.9414 1.97255C44.9023 2.07536 44.8388 2.16016 44.751 2.22699C44.6335 2.0819 44.5277 2.0819 44.4336 2.22699C44.3913 2.14217 44.3489 2.05737 44.3066 1.97255C43.7733 1.98217 43.0116 2.27902 42.4023 2.35421C42.4535 1.9744 42.7709 1.38071 42.9736 1.08203Z" fill="#260C0F"/>
<path fill-rule="evenodd" clip-rule="evenodd" d="M50.4639 1.33507C50.2142 1.19103 49.9814 1.23344 49.7656 1.46229C49.6387 1.12304 49.5117 1.12304 49.3848 1.46229C49.2612 1.01498 49.0708 0.972572 48.8135 1.33507C48.3257 1.32837 47.8391 1.32837 47.3535 1.33507C47.1934 1.30211 47.0665 1.2173 46.9727 1.08064C46.9304 1.16545 46.888 1.25026 46.8457 1.33507C46.7167 1.19079 46.632 1.2332 46.5918 1.46229C46.5071 1.29267 46.4226 1.29267 46.3379 1.46229C45.7872 1.01035 45.2371 0.967944 44.6875 1.33507C44.5584 1.01347 44.4102 1.01347 44.2432 1.33507C43.8746 1.31043 43.5148 1.31043 43.1641 1.33507C43.073 1.26584 43.0096 1.18103 42.9736 1.08064C45.4063 0.932768 47.8608 0.911566 50.3369 1.01703C50.4324 1.10236 50.4748 1.20838 50.4639 1.33507Z" fill="#331013"/>
<path fill-rule="evenodd" clip-rule="evenodd" d="M45.6396 6.80664C51.3701 6.88884 55.3692 9.56041 57.6367 14.8214C58.9746 20.2146 57.43 24.5611 53.0029 27.8612C47.9908 30.8004 43.2512 30.4187 38.7841 26.7162C35.4384 23.2929 34.4016 19.2431 35.6738 14.5669C37.6137 10.1831 40.9357 7.59638 45.6396 6.80664ZM46.1474 9.35099C45.6635 9.45579 45.1557 9.5194 44.624 9.54182C40.3087 10.8347 38.0658 13.7395 37.8955 18.2562C38.3125 23.6567 41.2112 26.5827 46.5917 27.0342C51.1264 26.8859 54.004 24.6384 55.2246 20.2917C55.8433 16.6538 54.8489 13.6218 52.2412 11.1956C51.5419 10.7816 50.8225 10.3999 50.083 10.0507C48.824 9.5458 47.5122 9.31257 46.1474 9.35099Z" fill="black"/>
<path fill-rule="evenodd" clip-rule="evenodd" d="M46.5283 10.75C47.2777 10.8481 48.0184 10.9753 48.75 11.1317C48.7909 12.3308 48.7486 13.5181 48.623 14.6937C49.1521 14.2485 49.6809 13.8032 50.21 13.358C50.3792 13.2731 50.5485 13.2731 50.7178 13.358C51.8818 14.8637 53.0456 16.3691 54.209 17.8742C54.2937 18.1286 54.2937 18.3831 54.209 18.6375C53.0456 20.1426 51.8818 21.648 50.7178 23.1537C50.5485 23.2386 50.3792 23.2386 50.21 23.1537C49.6135 22.6829 49.0634 22.174 48.5596 21.6271C49.4286 20.5227 50.2748 19.399 51.0986 18.2558C50.3044 17.1198 49.4581 16.0172 48.5596 14.9482C47.9807 18.4577 47.4518 21.9775 46.9727 25.5072C46.7634 25.7016 46.5095 25.7865 46.2109 25.7617C45.7228 25.71 45.2361 25.6464 44.751 25.5709C44.6452 25.4649 44.5393 25.3588 44.4336 25.2528C44.5063 24.1064 44.591 22.9615 44.6875 21.8179C44.1585 22.2632 43.6296 22.7085 43.1006 23.1537C42.9314 23.2386 42.762 23.2386 42.5928 23.1537C41.6505 21.8268 40.656 20.5334 39.6094 19.2736C39.4108 18.9083 39.2204 18.5479 39.0381 18.1922C39.0593 18.0863 39.0804 17.9802 39.1016 17.8742C40.2054 16.4296 41.3057 14.9879 42.4023 13.5488C42.5885 13.3166 42.8212 13.253 43.1006 13.358C43.6728 13.8256 44.223 14.3134 44.751 14.821C43.8932 15.9339 43.0892 17.0788 42.3389 18.2558C43.086 19.4509 43.9112 20.5959 44.8145 21.6907C45.2731 18.0056 45.8444 14.3588 46.5283 10.75Z" fill="black"/>
<path fill-rule="evenodd" clip-rule="evenodd" d="M13.2666 27.1603C17.2446 27.1391 21.2225 27.1603 25.2001 27.2239C25.3483 27.2875 25.4541 27.3935 25.5175 27.542C25.6022 28.1357 25.6022 28.7293 25.5175 29.323C25.3606 29.5823 25.1279 29.7307 24.8193 29.7683C20.9684 29.8531 17.1174 29.8531 13.2666 29.7683C12.9634 29.4749 12.8364 29.1145 12.8857 28.6869C12.8786 28.1283 13.0055 27.6194 13.2666 27.1603Z" fill="black"/>
<path fill-rule="evenodd" clip-rule="evenodd" d="M9.07715 27.2891C9.79655 27.2891 10.5159 27.2891 11.2354 27.2891C11.2354 28.0524 11.2354 28.8157 11.2354 29.579C10.7672 29.6147 10.3017 29.6783 9.83887 29.7698C9.3105 30.402 9.03543 31.1441 9.01367 31.9961C8.5905 32.3354 8.5905 32.6746 9.01367 33.0139C9.10164 33.6801 9.27092 34.3162 9.52148 34.9221C10.002 35.3628 10.5732 35.5325 11.2354 35.431C11.2354 36.1943 11.2354 36.9576 11.2354 37.7209C8.45758 38.0923 6.95529 36.9473 6.72852 34.286C6.22041 33.784 5.60681 33.5721 4.8877 33.6499C4.8877 32.8866 4.8877 32.1233 4.8877 31.36C5.62751 31.4876 6.24112 31.2756 6.72852 30.7239C6.75827 29.4822 7.24494 28.4857 8.18848 27.7343C8.46946 27.5287 8.76568 27.3803 9.07715 27.2891Z" fill="black"/>
<path fill-rule="evenodd" clip-rule="evenodd" d="M13.2666 31.2326C17.2447 31.2113 21.2225 31.2326 25.2002 31.2962C25.3483 31.3598 25.4541 31.4658 25.5176 31.6142C25.6022 32.208 25.6022 32.8016 25.5176 33.3953C25.3607 33.6545 25.1279 33.803 24.8193 33.8405C21.0954 33.9254 17.3714 33.9254 13.6475 33.8405C13.2742 33.8136 13.0414 33.6227 12.9492 33.2681C12.8296 32.5385 12.9354 31.86 13.2666 31.2326Z" fill="black"/>
<path fill-rule="evenodd" clip-rule="evenodd" d="M37.5147 34.2852C38.1931 34.2641 38.8702 34.2854 39.5459 34.3489C39.6094 34.4125 39.6729 34.4761 39.7364 34.5397C39.7739 37.5086 39.7317 40.477 39.6094 43.4449C38.4284 44.7558 37.2011 46.0279 35.9278 47.2614C35.8223 48.155 35.8435 49.0455 35.9913 49.933C37.6594 50.9393 38.1883 52.3811 37.5782 54.2584C36.2114 56.3114 34.4552 56.7142 32.3096 55.467C31.2925 54.5282 30.9328 53.3622 31.2305 51.9685C31.3671 51.568 31.5363 51.1864 31.7383 50.8235C32.2013 50.4657 32.6457 50.084 33.0713 49.6786C33.177 48.451 33.2404 47.2212 33.2618 45.9893C34.5736 44.6747 35.8855 43.3601 37.1973 42.0455C37.2396 39.5435 37.282 37.0417 37.3243 34.5397C37.4153 34.4705 37.4788 34.3856 37.5147 34.2852ZM34.087 52.0957C33.8945 52.3118 33.7675 52.5663 33.7061 52.859C33.8134 53.5389 34.1942 53.772 34.8487 53.5587C35.5171 52.5871 35.2632 52.0995 34.087 52.0957Z" fill="black"/>
<path fill-rule="evenodd" clip-rule="evenodd" d="M53.6377 34.4121C54.3994 34.4121 55.1611 34.4121 55.9229 34.4121C55.8811 36.9995 55.86 39.5862 55.8594 42.1724C57.1712 43.4869 58.4831 44.8016 59.7949 46.1161C59.8162 47.3905 59.8797 48.6626 59.9854 49.9327C62.2524 51.2807 62.612 53.0193 61.0645 55.1486C59.302 56.4646 57.6938 56.2951 56.2402 54.6397C55.2145 52.6031 55.7011 51.0341 57.7002 49.9327C57.848 49.0452 57.8692 48.1547 57.7637 47.2611C56.4519 45.9465 55.1399 44.6319 53.8281 43.3173C53.7224 40.3497 53.6589 37.3812 53.6377 34.4121ZM58.5889 51.9681C59.5987 51.9814 59.916 52.4479 59.541 53.3675C58.7737 53.9524 58.2447 53.7826 57.9541 52.8587C58.0252 52.45 58.2368 52.1532 58.5889 51.9681Z" fill="black"/>
<path fill-rule="evenodd" clip-rule="evenodd" d="M13.2665 35.3029C15.8905 35.2816 18.5143 35.3029 21.1376 35.3665C21.2858 35.4301 21.3915 35.5361 21.455 35.6845C21.5397 36.2783 21.5397 36.8719 21.455 37.4656C21.3915 37.6141 21.2858 37.72 21.1376 37.7836C18.5139 37.8685 15.8903 37.8685 13.2665 37.7836C12.9955 37.4854 12.8685 37.125 12.8857 36.7023C12.8923 36.1872 13.0192 35.7208 13.2665 35.3029Z" fill="black"/>
<path fill-rule="evenodd" clip-rule="evenodd" d="M23.2959 35.3028C23.9321 35.2817 24.5668 35.3029 25.2002 35.3664C25.3028 35.4056 25.3874 35.4692 25.4541 35.5573C26.0937 37.6093 25.3742 38.3513 23.2959 37.7836C23.1933 37.7444 23.1086 37.6808 23.042 37.5927C22.9006 36.9635 22.8794 36.3274 22.9785 35.6845C23.0671 35.533 23.1729 35.4057 23.2959 35.3028Z" fill="black"/>
<path fill-rule="evenodd" clip-rule="evenodd" d="M13.1396 39.3732C17.16 39.352 21.1802 39.3732 25.2002 39.4368C25.3484 39.5004 25.4541 39.6064 25.5176 39.7549C25.6023 40.3909 25.6023 41.027 25.5176 41.6631C25.4541 41.8116 25.3484 41.9176 25.2002 41.9812C18.4293 42.0291 11.6584 42.008 4.8877 41.9176C4.8877 41.1119 4.8877 40.3061 4.8877 39.5004C7.66033 39.5425 10.411 39.5 13.1396 39.3732Z" fill="black"/>
<path fill-rule="evenodd" clip-rule="evenodd" d="M13.1396 43.4455C15.806 43.4242 18.4721 43.4455 21.1377 43.5091C21.2858 43.5727 21.3916 43.6787 21.4551 43.8271C21.5398 44.4208 21.5398 45.0144 21.4551 45.6082C21.416 45.711 21.3525 45.7958 21.2646 45.8626C17.1647 45.9893 13.0599 45.9893 8.9502 45.8626C8.9502 45.0993 8.9502 44.336 8.9502 43.5727C10.3695 43.6144 11.7659 43.5721 13.1396 43.4455Z" fill="black"/>
<path fill-rule="evenodd" clip-rule="evenodd" d="M23.2959 43.4454C24.9974 43.1435 26.3304 43.6947 27.295 45.0992C27.5109 45.7663 27.6803 46.4448 27.8028 47.1347C27.9514 47.3119 28.1419 47.418 28.3741 47.4527C28.7126 47.4951 29.0511 47.5376 29.3897 47.5799C29.817 48.2799 29.8805 49.0219 29.5801 49.8062C29.5166 49.8698 29.4532 49.9335 29.3897 49.9971C28.9136 50.0301 28.4482 50.115 27.9932 50.2515C27.7441 51.1344 27.4267 52.0037 27.041 52.8595C25.9181 54.1328 24.5639 54.4721 22.9785 53.8772C22.8939 53.1987 22.8939 52.5202 22.9785 51.8417C23.0932 51.6889 23.2412 51.5828 23.4229 51.5237C23.9207 51.4978 24.4074 51.4342 24.8828 51.3328C24.9343 50.4124 25.2094 49.5643 25.708 48.7885C25.2091 48.0174 24.934 47.1693 24.8828 46.2441C24.3778 46.0461 23.8488 45.9401 23.2959 45.9261C23.1478 45.8625 23.042 45.7565 22.9785 45.6081C22.8939 45.0143 22.8939 44.4207 22.9785 43.827C23.0672 43.6755 23.1729 43.5483 23.2959 43.4454Z" fill="black"/>
<path fill-rule="evenodd" clip-rule="evenodd" d="M13.1396 47.5158C15.806 47.4945 18.472 47.5158 21.1377 47.5794C21.2858 47.643 21.3916 47.749 21.455 47.8974C21.5397 48.4912 21.5397 49.0848 21.455 49.6785C21.3916 49.8269 21.2858 49.9329 21.1377 49.9965C18.5139 50.0814 15.8903 50.0814 13.2666 49.9965C12.9591 49.688 12.8321 49.3064 12.8857 48.8516C12.8833 48.3848 12.968 47.9395 13.1396 47.5158Z" fill="black"/>
<path fill-rule="evenodd" clip-rule="evenodd" d="M8.9502 47.6426C9.71191 47.6426 10.4736 47.6426 11.2354 47.6426C11.2354 48.4059 11.2354 49.1692 11.2354 49.9325C10.4736 49.9325 9.71191 49.9325 8.9502 49.9325C8.9502 49.1692 8.9502 48.4059 8.9502 47.6426Z" fill="black"/>
<path fill-rule="evenodd" clip-rule="evenodd" d="M41.958 51.3323C41.8734 51.1627 41.8734 51.1627 41.958 51.3323V51.3323Z" fill="black"/>
<path fill-rule="evenodd" clip-rule="evenodd" d="M13.1396 51.4591C15.806 51.4379 18.472 51.4591 21.1377 51.5227C21.2539 51.5703 21.3598 51.6339 21.455 51.7136C21.5397 52.4345 21.5397 53.1553 21.455 53.8763C21.3916 53.9399 21.3281 54.0035 21.2646 54.0671C17.2444 54.152 13.2243 54.152 9.20406 54.0671C9.05595 54.0035 8.95016 53.8975 8.88668 53.7491C8.78708 53.0637 8.80825 52.3853 8.95016 51.7136C10.3669 51.6287 11.7633 51.544 13.1396 51.4591Z" fill="black"/>
<path fill-rule="evenodd" clip-rule="evenodd" d="M45.6396 53.6231C46.3602 53.602 47.0797 53.6233 47.7978 53.6867C48.6019 54.0912 49.2579 54.6636 49.7656 55.4042C50.4848 57.7699 49.702 59.3601 47.417 60.1748C44.2147 60.2336 42.9241 58.6859 43.5449 55.5314C44.1029 54.739 44.8011 54.1029 45.6396 53.6231ZM46.1474 56.1675C45.6326 57.2785 45.9712 57.7662 47.1631 57.6305C47.6839 56.5317 47.3454 56.0441 46.1474 56.1675Z" fill="black"/>
</mask>
<g mask="url(#mask0_801_672)">
<rect width="65" height="65.1354" fill="url(#paint0_linear_801_672)"/>
</g>
<defs>
<linearGradient id="paint0_linear_801_672" x1="32.5" y1="0" x2="32.5" y2="65.1354" gradientUnits="userSpaceOnUse">
<stop stop-color="#1BA5D9"/>
<stop offset="1" stop-color="#6DBE7F"/>
</linearGradient>
</defs>
</svg>
