<svg width="65" height="65" viewBox="0 0 65 65" fill="none" xmlns="http://www.w3.org/2000/svg">
<mask id="mask0_801_719" style="mask-type:alpha" maskUnits="userSpaceOnUse" x="0" y="0" width="65" height="65">
<path opacity="0.999" fill-rule="evenodd" clip-rule="evenodd" d="M32.3096 39.5469C28.6691 37.9045 25.4741 35.6193 22.7246 32.6914C22.674 32.7204 22.6529 32.7628 22.6612 32.8184C18.947 28.7726 16.81 23.9907 16.25 18.4727C16.1654 13.0983 16.1654 7.72395 16.25 2.34961C16.6089 1.94784 17.0533 1.79974 17.583 1.90527C18.782 2.55364 20.0092 3.14608 21.2647 3.68262C23.4686 4.42401 25.6691 4.42401 27.8662 3.68262C29.4353 3.07529 30.9798 2.41936 32.5 1.71484C33.8083 2.37952 35.1413 2.99313 36.4991 3.55566C38.9123 4.31053 41.3244 4.31053 43.7354 3.55566C45.0817 3.00937 46.3935 2.39577 47.6709 1.71484C48.0267 1.86871 48.344 2.0803 48.6231 2.34961C48.7078 7.72395 48.7078 13.0983 48.6231 18.4727C47.5689 26.8414 43.4852 33.2525 36.3721 37.7061C35.2718 38.2985 34.1716 38.8909 33.0713 39.4834C32.8208 39.5462 32.5669 39.5674 32.3096 39.5469ZM34.3409 36.2461C33.7975 36.5178 33.2473 36.7929 32.6905 37.0713C32.5212 37.156 32.3519 37.156 32.1826 37.0713C30.5325 36.2847 28.9667 35.3748 27.4854 34.3418C21.5851 29.6077 18.5593 23.4293 18.4082 15.8066C18.3236 12.2943 18.3236 8.78191 18.4082 5.26953C18.4505 5.22722 18.4929 5.18489 18.5352 5.14258C22.331 6.98008 26.203 7.1282 30.1514 5.58691C30.8659 5.16733 31.6065 4.80764 32.3731 4.50781C33.708 5.1643 35.0833 5.73559 36.4991 6.22168C38.7737 6.90627 41.0588 6.94859 43.3545 6.34863C44.3305 6.02936 45.3039 5.71198 46.2744 5.39648C46.2369 9.41825 46.2791 13.4385 46.4014 17.457C45.8601 24.1473 43.0248 29.6275 37.8955 33.8975C36.7572 34.7626 35.5722 35.5456 34.3409 36.2461ZM32.0557 8.95117C32.8169 9.0345 33.5362 9.26726 34.2139 9.64941C36.8158 10.6169 39.4818 10.9343 42.2119 10.6016C42.2542 10.7074 42.2966 10.8132 42.3389 10.9189C42.209 13.3936 42.1878 15.8692 42.2754 18.3457C41.4556 23.6479 38.9377 27.9432 34.7217 31.2314C34.0065 31.7565 33.2447 32.2009 32.4366 32.5645C27.5524 29.8711 24.3997 25.8086 22.9785 20.377C22.4908 18.2457 22.3004 16.0875 22.4073 13.9023C22.3876 12.7398 22.4511 11.5973 22.5977 10.4746C25.9157 10.9251 29.0684 10.4173 32.0557 8.95117Z" fill="#010001"/>
<path fill-rule="evenodd" clip-rule="evenodd" d="M32.4365 6.15625C35.9411 8.0204 39.6439 8.57053 43.5449 7.80664C44.0981 7.85354 44.5213 8.10744 44.8145 8.56836C44.9537 12.2986 44.869 16.0225 44.5605 19.7402C43.0545 26.281 39.3939 31.2534 33.5791 34.6572C33.0213 34.9586 32.4289 35.0433 31.8018 34.9111C25.2512 31.2338 21.3792 25.6691 20.1855 18.2168C20.1643 16.5876 20.1433 14.9583 20.1221 13.3291C20.1233 11.6504 20.2079 10 20.376 8.37793C20.3337 8.33562 20.2913 8.29329 20.249 8.25098C20.3978 8.19783 20.5248 8.11319 20.6299 7.99707C21.9654 8.02539 23.2984 8.13118 24.6289 8.31445C27.4162 8.1955 30.0187 7.47611 32.4365 6.15625ZM32.0557 8.94922C29.0683 10.4153 25.9157 10.9231 22.5977 10.4727C22.451 11.5954 22.3875 12.7379 22.4072 13.9004C22.3003 16.0855 22.4908 18.2437 22.9785 20.375C24.3996 25.8067 27.5524 29.8692 32.4365 32.5625C33.2447 32.1989 34.0064 31.7546 34.7217 31.2295C38.9377 27.9413 41.4555 23.6459 42.2754 18.3438C42.1878 15.8673 42.209 13.3917 42.3389 10.917C42.2966 10.8112 42.2542 10.7054 42.2119 10.5996C39.4818 10.9323 36.8158 10.6149 34.2139 9.64746C33.5362 9.26531 32.8169 9.03255 32.0557 8.94922Z" fill="black"/>
<path fill-rule="evenodd" clip-rule="evenodd" d="M16.1865 32.6904C18.4427 34.0954 20.7914 35.4919 23.2324 36.8799C23.2831 36.8509 23.3041 36.8085 23.2959 36.7529C25.9944 38.1622 27.6659 40.3627 28.3105 43.3545C28.423 46.4427 28.4865 49.532 28.501 52.6221C29.2638 52.601 30.0256 52.6222 30.7861 52.6855C31.1035 52.8337 31.3362 53.0664 31.4844 53.3838C31.5691 56.346 31.5691 59.3083 31.4844 62.2705C31.3362 62.5879 31.1035 62.8206 30.7861 62.9687C24.353 63.0623 17.9207 63.02 11.4893 62.8418C11.3835 62.736 11.2777 62.6301 11.1719 62.5244C11.0872 59.3928 11.0872 56.2614 11.1719 53.1299C11.2777 53.0241 11.3835 52.9182 11.4893 52.8125C12.3769 52.749 13.2656 52.7279 14.1553 52.749C14.2091 51.5991 13.9341 50.5412 13.3301 49.5752C11.4258 47.9248 9.52148 46.2744 7.61719 44.624C7.36328 44.2009 7.10938 43.7776 6.85547 43.3545C5.13787 37.3135 3.55096 31.2409 2.09473 25.1367C2.58683 21.9913 4.40649 20.6795 7.55371 21.2012C8.76773 21.6691 9.63523 22.4943 10.1562 23.6767C11.0415 26.7526 11.8667 29.8418 12.6318 32.9443C13.3574 32.6396 14.1191 32.4704 14.917 32.4365C15.3722 32.4429 15.7955 32.5275 16.1865 32.6904ZM5.77637 23.2959C6.91167 23.1961 7.69454 23.6616 8.125 24.6924C9.05274 28.1942 10.0049 31.6855 10.9814 35.166C10.4616 36.984 10.8847 38.5498 12.251 39.8633C14.334 41.1412 16.4498 42.3684 18.5986 43.5449C19.8255 43.7989 20.3544 43.3122 20.1855 42.0849C19.9951 41.8945 19.8047 41.7041 19.6143 41.5137C17.5096 40.3876 15.4572 39.1815 13.457 37.8955C12.5673 36.2037 13.0328 35.1034 14.8535 34.5947C15.2618 34.7168 15.6637 34.8649 16.0596 35.039C18.4294 36.4355 20.7991 37.832 23.1689 39.2285C25.1177 40.6496 26.1545 42.5751 26.2793 45.0049C26.2648 47.543 26.2437 50.0821 26.2158 52.6221C22.8704 52.5868 19.5273 52.629 16.1865 52.749C16.2076 51.9016 16.1865 51.0552 16.123 50.2099C15.9712 49.6103 15.7173 49.0601 15.3613 48.5596C13.6428 46.9677 11.8866 45.4231 10.0928 43.9258C9.63681 43.5549 9.27711 43.1106 9.01367 42.5928C7.47046 36.97 5.94702 31.3418 4.44336 25.708C4.23213 24.521 4.67647 23.717 5.77637 23.2959ZM13.1396 54.7803C18.5133 54.8811 23.8878 54.9233 29.2627 54.9072C29.102 56.8144 29.102 58.7187 29.2627 60.6201C23.8886 60.7309 18.5142 60.8155 13.1396 60.874C13.1396 58.8428 13.1396 56.8115 13.1396 54.7803Z" fill="#010102"/>
<path fill-rule="evenodd" clip-rule="evenodd" d="M58.0811 21.0117C60.8564 21.0154 62.4221 22.3907 62.7784 25.1377C61.3222 31.2419 59.7353 37.3144 58.0176 43.3555C57.6274 44.1563 57.0985 44.8545 56.4307 45.4502C54.8015 46.8255 53.1722 48.2009 51.543 49.5762C50.939 50.5422 50.664 51.6001 50.7178 52.75C51.6075 52.7289 52.4962 52.75 53.3838 52.8135C53.4896 52.9192 53.5955 53.0251 53.7012 53.1309C53.7859 56.2624 53.7859 59.3938 53.7012 62.5254C53.5955 62.6311 53.4896 62.737 53.3838 62.8428C46.8669 62.9275 40.3499 62.9275 33.833 62.8428C33.7273 62.737 33.6214 62.6311 33.5157 62.5254C33.431 59.3938 33.431 56.2624 33.5157 53.1309C33.6214 53.0251 33.7273 52.9192 33.833 52.8135C34.7207 52.75 35.6094 52.7289 36.4991 52.75C36.4779 49.6182 36.4991 46.4866 36.5625 43.3555C37.0983 40.7392 38.4736 38.6868 40.6885 37.1982C43.3338 35.6427 45.9998 34.1192 48.6866 32.6279C49.9082 32.3382 51.0931 32.444 52.2412 32.9453C53.0007 29.8412 53.8259 26.752 54.7168 23.6777C55.3789 22.1953 56.5004 21.3066 58.0811 21.0117ZM41.5772 39.293C44.0326 37.8537 46.4871 36.4149 48.9405 34.9766C49.7922 34.5142 50.6174 34.5989 51.416 35.2305C52.0075 36.1143 52.0075 37.003 51.416 37.8965C49.3871 39.1749 47.3348 40.4022 45.2588 41.5781C44.4671 42.179 44.4249 42.835 45.1319 43.5459C45.2522 43.6072 45.3792 43.6283 45.5127 43.6094C45.812 43.6301 46.1081 43.609 46.4014 43.5459C48.285 42.4136 50.1893 41.3133 52.1143 40.2451C53.9033 39.0042 54.4958 37.3326 53.8916 35.2305C54.8661 31.6286 55.8607 28.0316 56.875 24.4395C57.605 23.3067 58.5572 23.0315 59.7315 23.6143C60.3694 24.174 60.6021 24.8722 60.4297 25.709C58.9261 31.3428 57.4026 36.971 55.8594 42.5938C55.596 43.1116 55.2363 43.5559 54.7803 43.9268C52.8642 45.3818 51.0657 46.9687 49.3848 48.6875C49.1023 49.1675 48.8908 49.6753 48.75 50.2109C48.6866 51.0562 48.6655 51.9026 48.6866 52.75C45.3011 52.75 41.9158 52.75 38.5303 52.75C38.478 49.826 38.5415 46.9061 38.7207 43.9902C39.0789 42.049 40.031 40.4833 41.5772 39.293ZM35.4834 54.7812C40.9001 54.7812 46.3167 54.7812 51.7334 54.7812C51.7334 56.8125 51.7334 58.8438 51.7334 60.875C46.3167 60.875 40.9001 60.875 35.4834 60.875C35.4834 58.8438 35.4834 56.8125 35.4834 54.7812Z" fill="#010102"/>
<path opacity="0.996" fill-rule="evenodd" clip-rule="evenodd" d="M16.1865 32.6914C18.64 33.9175 21.0099 35.2717 23.2959 36.7539C23.3042 36.8095 23.2831 36.8519 23.2324 36.8809C20.7914 35.4929 18.4427 34.0964 16.1865 32.6914Z" fill="#13131E"/>
<path opacity="0.918" fill-rule="evenodd" clip-rule="evenodd" d="M32.3096 39.5469C28.5726 38.0586 25.3565 35.8157 22.6612 32.8184C22.6529 32.7628 22.674 32.7204 22.7246 32.6914C25.4741 35.6193 28.6691 37.9045 32.3096 39.5469Z" fill="#141522"/>
<path opacity="0.914" fill-rule="evenodd" clip-rule="evenodd" d="M27.4853 34.3398C28.9666 35.3729 30.5324 36.2827 32.1826 37.0693C32.3518 37.154 32.5212 37.154 32.6904 37.0693C33.2472 36.7909 33.7974 36.5158 34.3408 36.2441C34.4346 36.2275 34.5193 36.2487 34.5947 36.3076C33.9397 36.6138 33.305 36.9524 32.6904 37.3232C32.5212 37.4079 32.3518 37.4079 32.1826 37.3232C30.5173 36.5439 28.9516 35.6129 27.4853 34.5303C27.3281 34.4427 27.3281 34.3792 27.4853 34.3398Z" fill="#0F0E17"/>
<path opacity="0.918" fill-rule="evenodd" clip-rule="evenodd" d="M48.9404 34.9746C46.4871 36.413 44.0325 37.8517 41.5771 39.291C41.5215 39.2993 41.4791 39.2782 41.4502 39.2275C43.8836 37.7356 46.338 36.2756 48.8135 34.8477C48.8905 34.8634 48.9328 34.9057 48.9404 34.9746Z" fill="#11111A"/>
<path opacity="0.988" fill-rule="evenodd" clip-rule="evenodd" d="M45.2587 41.5779C45.3143 41.5697 45.3568 41.5907 45.3857 41.6414C44.5152 42.3622 44.5576 43.0182 45.5126 43.6092C45.3791 43.6281 45.2521 43.607 45.1318 43.5457C44.4248 42.8347 44.4671 42.1788 45.2587 41.5779Z" fill="#142135"/>
</mask>
<g mask="url(#mask0_801_719)">
<rect x="1.01562" y="-2.03125" width="65" height="65" fill="url(#paint0_linear_801_719)"/>
<path fill-rule="evenodd" clip-rule="evenodd" d="M38.6572 13.5215C39.7853 13.611 40.2719 14.2035 40.1172 15.2988C37.0068 18.3245 33.8965 21.3503 30.7861 24.376C30.4303 24.4718 30.0917 24.4296 29.7705 24.249C28.2645 22.7854 26.8045 21.2831 25.3906 19.7422C25.3952 18.5966 25.9665 18.1522 27.1045 18.4092C28.1854 19.5113 29.2857 20.5904 30.4053 21.6465C33.052 19.1056 35.6333 16.5031 38.1494 13.8389C38.3482 13.7617 38.5176 13.6558 38.6572 13.5215Z" fill="white"/>
</g>
<defs>
<linearGradient id="paint0_linear_801_719" x1="33.5156" y1="-2.03125" x2="33.5156" y2="62.9687" gradientUnits="userSpaceOnUse">
<stop stop-color="#1BA5D9"/>
<stop offset="1" stop-color="#6DBE7F"/>
</linearGradient>
</defs>
</svg>
