<svg width="512" height="512" viewBox="0 0 512 512" fill="none" xmlns="http://www.w3.org/2000/svg">
<mask id="mask0_364_1057" style="mask-type:alpha" maskUnits="userSpaceOnUse" x="0" y="0" width="512" height="512">
<g clip-path="url(#clip0_364_1057)">
<path fill-rule="evenodd" clip-rule="evenodd" d="M413.5 -0.5C444.833 -0.5 476.167 -0.5 507.5 -0.5C508.5 1.16667 509.833 2.5 511.5 3.5C511.5 160.167 511.5 316.833 511.5 473.5C510.038 474.458 508.705 475.624 507.5 477C476.167 477.667 444.833 477.667 413.5 477C411.185 475.891 409.685 474.057 409 471.5C408.667 370.167 408.333 268.833 408 167.5C397.333 178.167 386.667 188.833 376 199.5C375.667 290.167 375.333 380.833 375 471.5C374.727 473.329 373.893 474.829 372.5 476C340.919 477.651 309.252 477.985 277.5 477C275.714 476.215 274.214 475.049 273 473.5C272.833 389.831 272.333 306.165 271.5 222.5C260.833 217.167 250.167 211.833 239.5 206.5C238.667 295.498 238.167 384.498 238 473.5C236.786 475.049 235.286 476.215 233.5 477C202.5 477.667 171.5 477.667 140.5 477C139.069 476.535 137.903 475.701 137 474.5C135.675 394.89 135.009 315.224 135 235.5C124.333 246.167 113.667 256.833 103 267.5C102.667 335.5 102.333 403.5 102 471.5C101.315 474.057 99.8147 475.891 97.5 477C66.1667 477.667 34.8333 477.667 3.5 477C2.29493 475.624 0.961599 474.458 -0.5 473.5C-0.5 385.167 -0.5 296.833 -0.5 208.5C0.854084 206.304 2.85408 204.804 5.5 204C35.5 203.333 65.5 203.333 95.5 204C98.5735 204.739 100.74 206.572 102 209.5C102.333 220.167 102.667 230.833 103 241.5C113.667 230.833 124.333 220.167 135 209.5C135.333 164.167 135.667 118.833 136 73.5C136.774 71.0607 138.274 69.2273 140.5 68C171.5 67.3333 202.5 67.3333 233.5 68C234.931 68.4652 236.097 69.2986 237 70.5C238.321 108.749 238.988 147.082 239 185.5C250 191.167 261 196.833 272 202.5C272.333 181.833 272.667 161.167 273 140.5C273.935 137.898 275.768 136.398 278.5 136C308.833 135.333 339.167 135.333 369.5 136C372 137.167 373.833 139 375 141.5C375.333 152.167 375.667 162.833 376 173.5C386.667 162.833 397.333 152.167 408 141.5C408.333 96.1667 408.667 50.8333 409 5.5C409.599 2.74583 411.099 0.745833 413.5 -0.5ZM426.5 17.5C448.833 17.5 471.167 17.5 493.5 17.5C493.5 164.833 493.5 312.167 493.5 459.5C471.167 459.5 448.833 459.5 426.5 459.5C426.333 355.833 426.5 252.166 427 148.5C436.5 139 446 129.5 455.5 120C473.542 119.73 480.375 110.897 476 93.5C470.254 84.8078 462.421 82.3078 452.5 86C444.833 90.8293 441.667 97.6627 443 106.5C437.667 111.833 432.333 117.167 427 122.5C426.5 87.5016 426.333 52.5016 426.5 17.5ZM153.5 85.5C175.833 85.5 198.167 85.5 220.5 85.5C220.667 115.835 220.5 146.168 220 176.5C215.245 173.872 210.412 171.372 205.5 169C200.735 154.952 191.402 150.619 177.5 156C171.05 160.506 168.717 166.506 170.5 174C165 179.5 159.5 185 154 190.5C153.5 155.502 153.333 120.502 153.5 85.5ZM290.5 153.5C312.833 153.5 335.167 153.5 357.5 153.5C357.667 166.504 357.5 179.504 357 192.5C347.5 202 338 211.5 328.5 221C323.63 220.212 318.964 221.045 314.5 223.5C306.589 219.628 298.755 215.628 291 211.5C290.5 192.17 290.333 172.836 290.5 153.5ZM195.5 185.5C203.706 188.601 211.706 192.268 219.5 196.5C220.5 284.164 220.833 371.831 220.5 459.5C198.167 459.5 175.833 459.5 153.5 459.5C153.333 378.499 153.5 297.499 154 216.5C163.5 207 173 197.5 182.5 188C187.127 187.95 191.46 187.117 195.5 185.5ZM356.5 218.5C357.499 298.665 357.833 378.998 357.5 459.5C335.167 459.5 312.833 459.5 290.5 459.5C290.167 383.83 290.5 308.164 291.5 232.5C296.167 234.833 300.833 237.167 305.5 239.5C310.633 254.265 320.299 258.431 334.5 252C339.914 247.42 341.914 241.754 340.5 235C346.036 229.631 351.37 224.131 356.5 218.5ZM17.5 221.5C39.8333 221.5 62.1667 221.5 84.5 221.5C84.6666 234.504 84.4999 247.504 84 260.5C74.5 270 65 279.5 55.5 289C36.4484 289.374 29.9484 298.541 36 316.5C45.2502 326.758 54.9169 327.091 65 317.5C67.8601 312.92 68.6935 308.087 67.5 303C73 297.5 78.5 292 84 286.5C84.5 344.166 84.6667 401.832 84.5 459.5C62.1667 459.5 39.8333 459.5 17.5 459.5C17.5 380.167 17.5 300.833 17.5 221.5Z" fill="black"/>
<path fill-rule="evenodd" clip-rule="evenodd" d="M511.5 498.5C511.5 501.5 511.5 504.5 511.5 507.5C509.833 508.5 508.5 509.833 507.5 511.5C339.5 511.5 171.5 511.5 3.5 511.5C2.5 509.833 1.16667 508.5 -0.5 507.5C-0.5 504.5 -0.5 501.5 -0.5 498.5C1.55577 495.951 4.22244 494.451 7.5 494C172.833 493.333 338.167 493.333 503.5 494C506.778 494.451 509.444 495.951 511.5 498.5Z" fill="black"/>
</g>
</mask>
<g mask="url(#mask0_364_1057)">
<rect x="-68" y="-36" width="591" height="555" fill="url(#paint0_linear_364_1057)"/>
</g>
<defs>
<linearGradient id="paint0_linear_364_1057" x1="227.5" y1="-36" x2="227.5" y2="519" gradientUnits="userSpaceOnUse">
<stop stop-color="#48FCA9"/>
<stop offset="1" stop-color="#00BB9E"/>
</linearGradient>
<clipPath id="clip0_364_1057">
<rect width="512" height="512" fill="white"/>
</clipPath>
</defs>
</svg>
