<svg width="512" height="512" viewBox="0 0 512 512" fill="none" xmlns="http://www.w3.org/2000/svg">
<mask id="mask0_364_1019" style="mask-type:alpha" maskUnits="userSpaceOnUse" x="0" y="0" width="512" height="512">
<path opacity="0.999" fill-rule="evenodd" clip-rule="evenodd" d="M247.5 39.4993C255.023 38.9263 262.356 39.7597 269.5 41.9993C279.436 48.1337 289.769 53.4671 300.5 57.9993C311.833 58.3326 323.167 58.666 334.5 58.9993C342.535 60.767 349.035 64.9336 354 71.4993C359.399 79.9076 364.399 88.5743 369 97.4993C370.5 98.9993 372 100.499 373.5 101.999C385.96 107.641 397.127 115.141 407 124.499C409.225 128.28 410.891 132.28 412 136.499C412.079 149.222 412.746 161.888 414 174.499C419.587 184.005 424.92 193.672 430 203.499C431.496 210.098 431.829 216.765 431 223.499C425.251 235.996 419.251 248.329 413 260.499C412.667 271.832 412.333 283.166 412 294.499C409.645 303.209 404.811 310.209 397.5 315.499C416.154 339.475 434.32 363.808 452 388.499C452.691 397.797 448.357 401.464 439 399.499C417.845 397.785 396.678 396.619 375.5 395.999C370.44 418.078 365.606 440.245 361 462.499C358.983 467.923 355.15 469.757 349.5 467.999C347.714 467.214 346.214 466.048 345 464.499C324.577 436.654 303.91 408.987 283 381.499C264.667 394.832 246.333 394.832 228 381.499C206.865 410.268 185.365 438.768 163.5 466.999C159.833 468.999 156.167 468.999 152.5 466.999C151.107 465.828 150.273 464.328 150 462.499C145.394 440.245 140.56 418.078 135.5 395.999C114.324 396.653 93.1575 397.82 72 399.499C58.9974 400.157 55.6641 394.824 62 383.499C79.3587 360.974 96.5253 338.308 113.5 315.499C107.318 311.152 102.818 305.486 100 298.499C98.9798 284.508 97.9798 270.508 97 256.499C91.4129 246.993 86.0795 237.326 81 227.499C77.6667 219.499 77.6667 211.499 81 203.499C86.0795 193.672 91.4129 184.005 97 174.499C98.2313 161.879 98.8979 149.213 99 136.499C100.768 128.464 104.934 121.964 111.5 116.999C120.335 111.414 129.335 106.08 138.5 100.999C145.042 91.4185 151.209 81.5852 157 71.4993C161.965 64.9336 168.465 60.767 176.5 58.9993C189.223 58.9198 201.889 58.2531 214.5 56.9993C225.318 50.593 236.318 44.7597 247.5 39.4993ZM153.5 109.499C154.5 109.166 155.167 108.499 155.5 107.499C160.892 99.0613 166.059 90.3947 171 81.4993C172.558 79.6404 174.391 78.1404 176.5 76.9993C190.132 75.9132 203.799 74.9132 217.5 73.9993C220.993 73.0574 224.326 71.7241 227.5 69.9993C235.036 65.3988 242.703 61.0654 250.5 56.9993C254.926 56.2086 259.259 56.542 263.5 57.9993C273.038 64.2047 283.038 69.538 293.5 73.9993C306.131 75.1811 318.797 75.8478 331.5 75.9993C333.725 76.5604 335.725 77.5604 337.5 78.9993C344.375 89.9177 351.375 100.751 358.5 111.499C368.167 118.988 378.5 125.488 389.5 130.999C391.359 132.557 392.859 134.39 394 136.499C395.063 150.136 396.063 163.803 397 177.499C397.942 180.992 399.275 184.325 401 187.499C405.601 195.035 409.934 202.702 414 210.499C414.791 214.925 414.457 219.258 413 223.499C406.795 233.037 401.461 243.037 397 253.499C395.818 266.13 395.152 278.796 395 291.499C394.439 293.724 393.439 295.724 392 297.499C381.082 304.374 370.248 311.374 359.5 318.499C352.5 328.495 346 338.829 340 349.499C338.442 351.358 336.609 352.858 334.5 353.999C320.868 355.085 307.201 356.085 293.5 356.999C290.007 357.941 286.674 359.274 283.5 360.999C275.964 365.6 268.297 369.933 260.5 373.999C256.074 374.79 251.741 374.456 247.5 372.999C238.072 366.618 228.072 361.285 217.5 356.999C204.874 355.792 192.208 355.125 179.5 354.999C177.275 354.438 175.275 353.438 173.5 351.999C166.625 341.081 159.625 330.247 152.5 319.499C142.833 312.01 132.5 305.51 121.5 299.999C119.641 298.441 118.141 296.608 117 294.499C115.937 280.862 114.937 267.195 114 253.499C109.714 242.927 104.381 232.927 98 223.499C96 218.166 96 212.832 98 207.499C104.205 197.961 109.539 187.961 114 177.499C114.937 163.803 115.937 150.136 117 136.499C118.141 134.39 119.641 132.557 121.5 130.999C130.167 125.999 138.833 120.999 147.5 115.999C149.82 114.033 151.82 111.866 153.5 109.499ZM244.5 114.499C288.136 112.23 321.303 129.564 344 166.499C363.749 206.856 360.082 244.856 333 280.499C303.569 312.485 267.736 322.985 225.5 311.999C176.869 293.26 153.369 257.76 155 205.499C161.338 162.647 184.838 133.814 225.5 118.999C231.95 117.414 238.283 115.914 244.5 114.499ZM255.5 174.499C259.679 182.351 264.012 190.184 268.5 197.999C277.529 200.112 286.529 202.112 295.5 203.999C288.968 210.197 282.801 216.697 277 223.499C277.892 232.517 278.892 241.517 280 250.499C272.223 245.859 264.057 242.192 255.5 239.499C247.031 242.065 239.031 245.732 231.5 250.499C231.167 250.166 230.833 249.832 230.5 249.499C232.758 240.62 233.925 231.62 234 222.499C228.351 216.016 222.517 209.682 216.5 203.499C224.789 201.784 233.123 200.284 241.5 198.999C247.064 191.375 251.73 183.208 255.5 174.499ZM127.5 324.499C132.643 325.991 137.143 328.657 141 332.499C146.585 341.334 151.919 350.334 157 359.499C161.965 366.065 168.465 370.231 176.5 371.999C188.596 372.039 200.596 372.706 212.5 373.999C196 395.832 179.5 417.666 163 439.499C158.618 421.255 154.618 402.922 151 384.499C149.466 379.31 145.966 376.976 140.5 377.499C122.178 379.204 103.844 380.37 85.5 380.999C99.8838 362.374 113.884 343.541 127.5 324.499ZM380.5 324.499C382.91 324.92 384.743 326.253 386 328.499C398.782 346.282 411.949 363.782 425.5 380.999C407.16 380.308 388.827 379.142 370.5 377.499C365.034 376.976 361.534 379.31 360 384.499C356.382 402.922 352.382 421.255 348 439.499C331.5 417.666 315 395.832 298.5 373.999C310.404 372.706 322.404 372.039 334.5 371.999C342.546 370.227 349.046 366.06 354 359.499C359.399 351.091 364.399 342.424 369 333.499C372.449 329.876 376.283 326.876 380.5 324.499Z" fill="#010102"/>
<path opacity="0.188" fill-rule="evenodd" clip-rule="evenodd" d="M155.5 107.5C155.167 108.5 154.5 109.167 153.5 109.5C153.5 108.167 154.167 107.5 155.5 107.5Z" fill="#04B5AA"/>
<path opacity="0.997" fill-rule="evenodd" clip-rule="evenodd" d="M252.5 146.499C256.401 145.856 259.734 146.856 262.5 149.499C268.039 160.744 273.706 171.91 279.5 182.999C291.451 185.213 303.451 187.213 315.5 188.999C321.955 190.816 324.121 194.983 322 201.499C313 210.499 304 219.499 295 228.499C296.227 241.034 298.06 253.534 300.5 265.999C299.579 273.134 295.579 275.8 288.5 273.999C277.5 268.499 266.5 262.999 255.5 257.499C244.677 262.744 234.01 268.244 223.5 273.999C216.104 276.14 211.77 273.473 210.5 265.999C213.154 253.579 214.988 241.079 216 228.499C207.333 219.832 198.667 211.166 190 202.499C187.007 195.989 188.84 191.489 195.5 188.999C207.575 187.37 219.575 185.37 231.5 182.999C237.128 172.244 242.628 161.41 248 150.499C249.397 148.929 250.897 147.595 252.5 146.499ZM255.5 174.499C251.73 183.208 247.064 191.375 241.5 198.999C233.123 200.284 224.789 201.784 216.5 203.499C222.517 209.682 228.351 216.016 234 222.499C233.925 231.62 232.758 240.62 230.5 249.499C230.833 249.832 231.167 250.166 231.5 250.499C239.031 245.732 247.031 242.065 255.5 239.499C264.057 242.192 272.223 245.859 280 250.499C278.892 241.517 277.892 232.517 277 223.499C282.801 216.697 288.968 210.197 295.5 203.999C286.529 202.112 277.529 200.112 268.5 197.999C264.012 190.184 259.679 182.351 255.5 174.499Z" fill="#000101"/>
</mask>
<g mask="url(#mask0_364_1019)">
<rect x="-106" y="-21" width="591" height="555" fill="url(#paint0_linear_364_1019)"/>
</g>
<defs>
<linearGradient id="paint0_linear_364_1019" x1="189.5" y1="-21" x2="189.5" y2="534" gradientUnits="userSpaceOnUse">
<stop stop-color="#48FCA9"/>
<stop offset="1" stop-color="#00BB9E"/>
</linearGradient>
</defs>
</svg>
