<svg width="512" height="512" viewBox="0 0 512 512" fill="none" xmlns="http://www.w3.org/2000/svg">
<mask id="mask0_364_1028" style="mask-type:alpha" maskUnits="userSpaceOnUse" x="0" y="0" width="512" height="512">
<g clip-path="url(#clip0_364_1028)">
<path fill-rule="evenodd" clip-rule="evenodd" d="M129.5 -0.5C213.5 -0.5 297.5 -0.5 381.5 -0.5C389.778 4.08125 392.611 11.0812 390 20.5C388.5 24.6667 385.667 27.5 381.5 29C374.508 29.4996 367.508 29.6663 360.5 29.5C360.5 39.5 360.5 49.5 360.5 59.5C377.503 59.3334 394.503 59.5001 411.5 60C414.735 61.3604 417.235 63.527 419 66.5C420.637 83.075 420.97 99.7417 420 116.5C415.141 143.385 400.307 162.552 375.5 174C369.668 176.277 363.668 177.944 357.5 179C348.167 179.333 338.833 179.667 329.5 180C312.998 195.917 293.331 205.417 270.5 208.5C270.5 229.5 270.5 250.5 270.5 271.5C290.406 267.676 307.24 273.009 321 287.5C329.96 300.771 333.127 315.437 330.5 331.5C337.508 331.334 344.508 331.5 351.5 332C354.735 333.36 357.235 335.527 359 338.5C360.473 356.073 360.973 373.739 360.5 391.5C407.835 391.333 455.168 391.5 502.5 392C506.685 393.688 509.685 396.521 511.5 400.5C511.5 434.5 511.5 468.5 511.5 502.5C510.196 503.987 509.03 505.654 508 507.5C505.985 508.697 504.151 510.03 502.5 511.5C337.833 511.5 173.167 511.5 8.5 511.5C7.01307 510.196 5.3464 509.03 3.5 508C2.30342 505.985 0.970083 504.151 -0.5 502.5C-0.5 478.5 -0.5 454.5 -0.5 430.5C1.31481 426.521 4.31481 423.688 8.5 422C55.8322 421.5 103.165 421.333 150.5 421.5C150.333 394.498 150.5 367.498 151 340.5C152.5 336.333 155.333 333.5 159.5 332C166.492 331.5 173.492 331.334 180.5 331.5C176.676 311.594 182.009 294.76 196.5 281C209.771 272.04 224.437 268.873 240.5 271.5C240.5 250.5 240.5 229.5 240.5 208.5C217.669 205.417 198.002 195.917 181.5 180C142.456 184.068 113.956 168.901 96 134.5C93.9266 128.947 92.2599 123.28 91 117.5C90.0291 100.409 90.3625 83.4086 92 66.5C93.7648 63.527 96.2648 61.3604 99.5 60C116.497 59.5001 133.497 59.3334 150.5 59.5C150.5 49.5 150.5 39.5 150.5 29.5C143.492 29.6663 136.492 29.4996 129.5 29C121.085 24.6524 118.252 17.8191 121 8.5C122.688 4.31481 125.521 1.31481 129.5 -0.5ZM180.5 29.5C230.5 29.5 280.5 29.5 330.5 29.5C330.893 58.5223 330.393 87.5223 329 116.5C322.438 146.058 304.938 165.891 276.5 176C241.085 183.864 212.919 173.031 192 143.5C187.254 135.011 183.921 126.011 182 116.5C180.607 87.5223 180.107 58.5223 180.5 29.5ZM120.5 89.5C130.5 89.5 140.5 89.5 150.5 89.5C148.156 109.884 151.156 129.384 159.5 148C139.743 144.583 127.243 133.083 122 113.5C120.902 105.536 120.402 97.536 120.5 89.5ZM360.5 89.5C370.5 89.5 380.5 89.5 390.5 89.5C393.546 111.225 386.546 128.725 369.5 142C363.957 145.626 357.957 147.626 351.5 148C359.664 129.36 362.664 109.86 360.5 89.5ZM225.5 301.5C247.212 301.056 268.878 301.556 290.5 303C294.667 304.5 297.5 307.333 299 311.5C300.274 318.103 300.774 324.77 300.5 331.5C270.5 331.5 240.5 331.5 210.5 331.5C210.226 324.77 210.726 318.103 212 311.5C214.982 306.005 219.482 302.671 225.5 301.5ZM180.5 361.5C230.5 361.5 280.5 361.5 330.5 361.5C330.333 378.503 330.5 395.503 331 412.5C332.5 416.667 335.333 419.5 339.5 421C386.832 421.5 434.165 421.667 481.5 421.5C481.5 441.5 481.5 461.5 481.5 481.5C330.833 481.5 180.167 481.5 29.5 481.5C29.5 471.5 29.5 461.5 29.5 451.5C77.5844 451.99 125.584 451.49 173.5 450C176.473 448.235 178.64 445.735 180 442.5C180.5 415.502 180.667 388.502 180.5 361.5Z" fill="black"/>
<path fill-rule="evenodd" clip-rule="evenodd" d="M460.5 -0.5C464.5 -0.5 468.5 -0.5 472.5 -0.5C476.479 1.31481 479.312 4.31481 481 8.5C481.5 15.4921 481.666 22.4921 481.5 29.5C486.833 29.5 492.167 29.5 497.5 29.5C500.076 30.4878 502.743 31.4878 505.5 32.5C507.5 32.5 508.5 33.5 508.5 35.5C509.512 38.2572 510.512 40.9239 511.5 43.5C511.5 44.1667 511.5 44.8333 511.5 45.5C510.512 48.0761 509.512 50.7428 508.5 53.5C508.5 55.5 507.5 56.5 505.5 56.5C502.743 57.5122 500.076 58.5122 497.5 59.5C492.167 59.5 486.833 59.5 481.5 59.5C481.5 64.8333 481.5 70.1667 481.5 75.5C480.512 78.0761 479.512 80.7428 478.5 83.5C478.5 85.5 477.5 86.5 475.5 86.5C472.743 87.5122 470.076 88.5122 467.5 89.5C466.833 89.5 466.167 89.5 465.5 89.5C462.924 88.5122 460.257 87.5122 457.5 86.5C455.5 86.5 454.5 85.5 454.5 83.5C453.488 80.7428 452.488 78.0761 451.5 75.5C451.5 70.1667 451.5 64.8333 451.5 59.5C446.167 59.5 440.833 59.5 435.5 59.5C432.924 58.5122 430.257 57.5122 427.5 56.5C425.5 56.5 424.5 55.5 424.5 53.5C423.488 50.7428 422.488 48.0761 421.5 45.5C420.77 39.1276 423.104 34.2943 428.5 31C436.054 29.5679 443.721 29.0679 451.5 29.5C451.334 22.4921 451.5 15.4921 452 8.5C453.688 4.31481 456.521 1.31481 460.5 -0.5Z" fill="black"/>
<path fill-rule="evenodd" clip-rule="evenodd" d="M497.5 29.5003C500.831 29.0184 503.497 30.0184 505.5 32.5003C502.743 31.4881 500.076 30.4881 497.5 29.5003Z" fill="#021915"/>
<path fill-rule="evenodd" clip-rule="evenodd" d="M508.5 35.5C509.728 36.3065 510.728 37.3065 511.5 38.5C511.5 40.1667 511.5 41.8333 511.5 43.5C510.512 40.9239 509.512 38.2572 508.5 35.5Z" fill="#011E18"/>
<path opacity="0.992" fill-rule="evenodd" clip-rule="evenodd" d="M511.5 45.5C511.5 47.1667 511.5 48.8333 511.5 50.5C510.728 51.6935 509.728 52.6935 508.5 53.5C509.512 50.7428 510.512 48.0761 511.5 45.5Z" fill="#021D19"/>
<path fill-rule="evenodd" clip-rule="evenodd" d="M421.5 45.5C422.488 48.0761 423.488 50.7428 424.5 53.5C422.018 51.4973 421.018 48.8306 421.5 45.5Z" fill="#021C17"/>
<path fill-rule="evenodd" clip-rule="evenodd" d="M427.5 56.5C430.257 57.5122 432.924 58.5122 435.5 59.5C432.169 59.9819 429.503 58.9819 427.5 56.5Z" fill="#011D18"/>
<path opacity="0.992" fill-rule="evenodd" clip-rule="evenodd" d="M505.5 56.5C503.497 58.9819 500.831 59.9819 497.5 59.5C500.076 58.5122 502.743 57.5122 505.5 56.5Z" fill="#021D19"/>
<path opacity="0.992" fill-rule="evenodd" clip-rule="evenodd" d="M481.5 75.5C481.982 78.8306 480.982 81.4973 478.5 83.5C479.512 80.7428 480.512 78.0761 481.5 75.5Z" fill="#011C18"/>
<path fill-rule="evenodd" clip-rule="evenodd" d="M451.5 75.5C452.488 78.0761 453.488 80.7428 454.5 83.5C452.018 81.4973 451.018 78.8306 451.5 75.5Z" fill="#011B16"/>
<path fill-rule="evenodd" clip-rule="evenodd" d="M457.5 86.5C460.257 87.5122 462.924 88.5122 465.5 89.5C462.169 89.9819 459.503 88.9819 457.5 86.5Z" fill="#011C18"/>
<path opacity="0.992" fill-rule="evenodd" clip-rule="evenodd" d="M475.5 86.5C473.497 88.9819 470.831 89.9819 467.5 89.5C470.076 88.5122 472.743 87.5122 475.5 86.5Z" fill="#021D18"/>
<path opacity="0.998" fill-rule="evenodd" clip-rule="evenodd" d="M129.5 210.5C138.822 208.251 145.655 211.251 150 219.5C150.5 226.492 150.666 233.492 150.5 240.5C157.508 240.334 164.508 240.5 171.5 241C180.475 246.152 182.975 253.652 179 263.5C177.833 266 176 267.833 173.5 269C165.946 270.432 158.279 270.932 150.5 270.5C150.666 277.508 150.5 284.508 150 291.5C144.848 300.475 137.348 302.975 127.5 299C125 297.833 123.167 296 122 293.5C120.568 285.946 120.068 278.279 120.5 270.5C113.492 270.666 106.492 270.5 99.5 270C90.5253 264.848 88.0253 257.348 92 247.5C93.1667 245 95 243.167 97.5 242C105.054 240.568 112.721 240.068 120.5 240.5C120.334 233.492 120.5 226.492 121 219.5C122.688 215.315 125.521 212.315 129.5 210.5Z" fill="black"/>
</g>
</mask>
<g mask="url(#mask0_364_1028)">
<rect x="-40" y="-32" width="591" height="555" fill="url(#paint0_linear_364_1028)"/>
</g>
<defs>
<linearGradient id="paint0_linear_364_1028" x1="255.5" y1="-32" x2="255.5" y2="523" gradientUnits="userSpaceOnUse">
<stop stop-color="#48FCA9"/>
<stop offset="1" stop-color="#00BB9E"/>
</linearGradient>
<clipPath id="clip0_364_1028">
<rect width="512" height="512" fill="white"/>
</clipPath>
</defs>
</svg>
