<svg width="512" height="512" viewBox="0 0 512 512" fill="none" xmlns="http://www.w3.org/2000/svg">
<mask id="mask0_364_1064" style="mask-type:alpha" maskUnits="userSpaceOnUse" x="0" y="0" width="512" height="512">
<path opacity="0.999" fill-rule="evenodd" clip-rule="evenodd" d="M251.5 15.4991C255.257 15.0699 258.757 15.7366 262 17.4991C269.626 29.9162 277.126 42.4162 284.5 54.9991C294.833 55.3324 305.167 55.6658 315.5 55.9991C317.333 56.4991 318.5 57.6658 319 59.4991C319.817 62.9634 319.483 66.2967 318 69.4991C310.346 78.8093 303.179 88.476 296.5 98.4991C300.162 111.967 302.329 125.634 303 139.499C302.5 141.332 301.333 142.499 299.5 142.999C296.833 143.666 294.167 143.666 291.5 142.999C279.335 136.084 267.335 128.917 255.5 121.499C243.665 128.917 231.665 136.084 219.5 142.999C208.871 144.643 205.038 140.143 208 129.499C209.977 119.113 212.144 108.78 214.5 98.4991C207.821 88.476 200.654 78.8093 193 69.4991C191.517 66.2967 191.183 62.9634 192 59.4991C192.5 57.6658 193.667 56.4991 195.5 55.9991C205.833 55.6658 216.167 55.3324 226.5 54.9991C234.335 41.3691 242.669 28.2024 251.5 15.4991ZM254.5 41.4991C255.496 41.4133 256.329 41.7467 257 42.4991C262.123 51.9144 267.623 61.081 273.5 69.9991C280.394 71.2588 287.394 71.9254 294.5 71.9991C289.301 78.2315 284.468 84.7315 280 91.4991C279.611 100.219 280.778 108.719 283.5 116.999C283.167 117.166 282.833 117.332 282.5 117.499C276.167 113.666 269.833 109.832 263.5 105.999C259.782 103.701 255.782 103.034 251.5 103.999C244.833 107.999 238.167 111.999 231.5 115.999C230.241 116.981 228.908 117.314 227.5 116.999C230.222 108.719 231.389 100.219 231 91.4991C226.532 84.7315 221.699 78.2315 216.5 71.9991C223.606 71.9254 230.606 71.2588 237.5 69.9991C243.556 60.7195 249.222 51.2195 254.5 41.4991Z" fill="black"/>
<path fill-rule="evenodd" clip-rule="evenodd" d="M83.5 95.4991C87.2568 95.0699 90.7568 95.7366 94 97.4991C101.626 109.916 109.126 122.416 116.5 134.999C126.833 135.332 137.167 135.666 147.5 135.999C149.333 136.499 150.5 137.666 151 139.499C151.817 142.963 151.483 146.297 150 149.499C142.346 158.809 135.179 168.476 128.5 178.499C132.162 191.967 134.329 205.634 135 219.499C134.5 221.332 133.333 222.499 131.5 222.999C128.833 223.666 126.167 223.666 123.5 222.999C111.335 216.084 99.3345 208.917 87.5 201.499C75.6655 208.917 63.6655 216.084 51.5 222.999C40.8712 224.643 37.0379 220.143 40 209.499C41.977 199.113 44.1437 188.78 46.5 178.499C39.821 168.476 32.6543 158.809 25 149.499C23.5167 146.297 23.1834 142.963 24 139.499C24.5 137.666 25.6667 136.499 27.5 135.999C37.8333 135.666 48.1667 135.332 58.5 134.999C66.3354 121.369 74.6688 108.202 83.5 95.4991ZM86.5 121.499C87.4959 121.413 88.3292 121.747 89 122.499C94.1227 131.914 99.6227 141.081 105.5 149.999C112.394 151.259 119.394 151.925 126.5 151.999C121.301 158.231 116.468 164.731 112 171.499C111.611 180.219 112.778 188.719 115.5 196.999C115.167 197.166 114.833 197.332 114.5 197.499C108.167 193.666 101.833 189.832 95.5 185.999C91.7824 183.701 87.7824 183.034 83.5 183.999C76.8333 187.999 70.1667 191.999 63.5 195.999C62.2411 196.981 60.9078 197.314 59.5 196.999C62.2223 188.719 63.389 180.219 63 171.499C58.5322 164.731 53.6989 158.231 48.5 151.999C55.6062 151.925 62.6062 151.259 69.5 149.999C75.5556 140.719 81.2223 131.219 86.5 121.499Z" fill="black"/>
<path opacity="0.999" fill-rule="evenodd" clip-rule="evenodd" d="M419.5 95.4991C423.257 95.0699 426.757 95.7366 430 97.4991C437.626 109.916 445.126 122.416 452.5 134.999C462.833 135.332 473.167 135.666 483.5 135.999C485.333 136.499 486.5 137.666 487 139.499C487.817 142.963 487.483 146.297 486 149.499C478.346 158.809 471.179 168.476 464.5 178.499C468.162 191.967 470.329 205.634 471 219.499C470.5 221.332 469.333 222.499 467.5 222.999C464.833 223.666 462.167 223.666 459.5 222.999C447.335 216.084 435.335 208.917 423.5 201.499C411.665 208.917 399.665 216.084 387.5 222.999C376.871 224.643 373.038 220.143 376 209.499C377.977 199.113 380.144 188.78 382.5 178.499C375.821 168.476 368.654 158.809 361 149.499C359.517 146.297 359.183 142.963 360 139.499C360.5 137.666 361.667 136.499 363.5 135.999C373.833 135.666 384.167 135.332 394.5 134.999C402.335 121.369 410.669 108.202 419.5 95.4991ZM422.5 121.499C423.496 121.413 424.329 121.747 425 122.499C430.123 131.914 435.623 141.081 441.5 149.999C448.394 151.259 455.394 151.925 462.5 151.999C457.301 158.231 452.468 164.731 448 171.499C447.611 180.219 448.778 188.719 451.5 196.999C451.167 197.166 450.833 197.332 450.5 197.499C444.167 193.666 437.833 189.832 431.5 185.999C427.782 183.701 423.782 183.034 419.5 183.999C412.833 187.999 406.167 191.999 399.5 195.999C398.241 196.981 396.908 197.314 395.5 196.999C398.222 188.719 399.389 180.219 399 171.499C394.532 164.731 389.699 158.231 384.5 151.999C391.606 151.925 398.606 151.259 405.5 149.999C411.556 140.719 417.222 131.219 422.5 121.499Z" fill="black"/>
<path opacity="0.999" fill-rule="evenodd" clip-rule="evenodd" d="M242.5 175.501C246.584 175.044 250.417 175.711 254 177.501C258.392 202.274 267.725 224.941 282 245.501C316.691 253.693 337.191 275.36 343.5 310.501C346.086 311.481 348.753 311.814 351.5 311.501C351.146 308.04 352.479 305.54 355.5 304.001C374.167 303.334 392.833 303.334 411.5 304.001C412.416 304.375 413.25 304.875 414 305.501C415.159 334.083 415.659 362.75 415.5 391.501C415.659 420.252 415.159 448.919 414 477.501C413.25 478.127 412.416 478.627 411.5 479.001C392.833 479.668 374.167 479.668 355.5 479.001C352.479 477.462 351.146 474.962 351.5 471.501C347.818 471.336 344.152 471.502 340.5 472.001C334.359 484.145 324.692 491.812 311.5 495.001C255.5 495.668 199.5 495.668 143.5 495.001C124.556 488.633 116.723 475.467 120 455.501C120.873 452.383 122.039 449.383 123.5 446.501C103.61 434.993 98.4433 418.659 108 397.501C109.743 395.68 111.243 393.68 112.5 391.501C100.5 375.501 100.5 359.501 112.5 343.501C103.158 332.136 100.991 319.469 106 305.501C110.523 296.481 117.69 290.647 127.5 288.001C160.833 287.668 194.167 287.334 227.5 287.001C206.948 261.571 202.115 233.404 213 202.501C219.551 189.778 229.384 180.778 242.5 175.501ZM239.5 196.501C240.497 196.471 241.164 196.971 241.5 198.001C247.027 221.219 257.193 242.052 272 260.501C272.903 261.702 274.069 262.536 275.5 263.001C298.675 265.867 314.509 278.034 323 299.501C325.166 308.398 327.332 317.231 329.5 326.001C336.719 327.43 344.053 327.93 351.5 327.501C351.5 370.168 351.5 412.834 351.5 455.501C344.825 455.335 338.158 455.501 331.5 456.001C326.602 462.577 321.268 468.911 315.5 475.001C311.479 477.341 307.146 478.675 302.5 479.001C272.494 479.834 242.494 479.668 212.5 478.501C218.053 464.271 216.053 451.271 206.5 439.501C216.478 426.912 218.144 413.246 211.5 398.501C230.387 395.372 248.387 389.538 265.5 381.001C280.811 372.369 291.145 359.702 296.5 343.001C293.474 334.993 288.307 333.159 281 337.501C276.811 349.358 269.311 358.525 258.5 365.001C244.505 373.112 229.505 377.779 213.5 379.001C217.896 365.839 215.563 354.005 206.5 343.501C216.053 331.718 218.053 318.718 212.5 304.501C225.487 303.668 238.487 303.168 251.5 303.001C253.333 302.501 254.5 301.334 255 299.501C255.817 296.037 255.483 292.703 254 289.501C230.723 270.943 221.389 246.943 226 217.501C228.491 209.18 232.991 202.18 239.5 196.501ZM135.5 303.501C153.214 303.071 170.881 303.571 188.5 305.001C196.871 308.91 200.037 315.41 198 324.501C195.399 331.054 190.566 334.554 183.5 335.001C165.789 335.931 148.122 335.597 130.5 334.001C122.129 330.092 118.963 323.592 121 314.501C123.821 308.024 128.655 304.357 135.5 303.501ZM367.5 319.501C378.167 319.501 388.833 319.501 399.5 319.501C399.5 367.501 399.5 415.501 399.5 463.501C388.833 463.501 378.167 463.501 367.5 463.501C367.5 415.501 367.5 367.501 367.5 319.501ZM135.5 351.501C153.214 351.071 170.881 351.571 188.5 353.001C196.871 356.91 200.037 363.41 198 372.501C195.399 379.054 190.566 382.554 183.5 383.001C165.789 383.931 148.122 383.597 130.5 382.001C122.129 378.092 118.963 371.592 121 362.501C123.821 356.024 128.655 352.357 135.5 351.501ZM135.5 399.501C153.214 399.071 170.881 399.571 188.5 401.001C196.871 404.91 200.037 411.41 198 420.501C195.399 427.054 190.566 430.554 183.5 431.001C165.789 431.931 148.122 431.597 130.5 430.001C122.129 426.092 118.963 419.592 121 410.501C123.821 404.024 128.655 400.357 135.5 399.501ZM151.5 447.501C162.172 447.334 172.839 447.501 183.5 448.001C197.344 451.188 201.51 459.355 196 472.501C192.736 476.383 188.57 478.55 183.5 479.001C172.833 479.668 162.167 479.668 151.5 479.001C139.657 477.154 134.824 470.321 137 458.501C139.821 452.024 144.655 448.357 151.5 447.501Z" fill="black"/>
</mask>
<g mask="url(#mask0_364_1064)">
<path d="M-37 -21H554V534H-37V-21Z" fill="url(#paint0_linear_364_1064)"/>
</g>
<defs>
<linearGradient id="paint0_linear_364_1064" x1="258.5" y1="-21" x2="258.5" y2="534" gradientUnits="userSpaceOnUse">
<stop stop-color="#48FCA9"/>
<stop offset="1" stop-color="#00BB9E"/>
</linearGradient>
</defs>
</svg>
