<svg width="65" height="65" fill="none" xmlns="http://www.w3.org/2000/svg"><g clip-path="url(#a)"><mask id="b" style="mask-type:alpha" maskUnits="userSpaceOnUse" x="-1" y="4" width="66" height="57"><path fill-rule="evenodd" clip-rule="evenodd" d="M64.936 20.884v33.261c-.823 3.3-2.896 5.352-6.22 6.158-17.52.084-35.04.084-52.559 0-3.324-.806-5.397-2.859-6.22-6.157V20.883c.822-3.299 2.896-5.351 6.22-6.157a726.21 726.21 0 0 1 13.584-.064c-.626-3.389.305-6.245 2.793-8.57a8.949 8.949 0 0 1 3.428-1.523c4.316-.084 8.633-.084 12.95 0 3.321.783 5.373 2.836 6.156 6.157.064 1.312.085 2.623.064 3.936 4.528-.021 9.056 0 13.584.064 3.324.806 5.397 2.858 6.22 6.157ZM27.358 9.585c3.644-.057 7.284.006 10.918.19.783.275 1.312.804 1.587 1.587.165 1.094.228 2.194.19 3.301H24.82a18.003 18.003 0 0 1 .19-3.3c.434-1.073 1.217-1.665 2.35-1.778ZM7.554 19.741c16.846-.062 33.688.002 50.527.19 1.082.406 1.653 1.19 1.714 2.35a45.42 45.42 0 0 1-.127 6.347c-.768 3.265-2.778 5.317-6.03 6.157-1.139.14-2.281.204-3.428.19v-5.078h-5.078v5.079h-25.39v-5.078h-5.079v5.078c-4.032.458-7.016-1.065-8.95-4.57a8.91 8.91 0 0 1-.635-3.048 36.392 36.392 0 0 1 .127-5.84c.434-1.071 1.217-1.664 2.349-1.777Zm-2.54 17.9c2.892 2.027 6.108 2.831 9.65 2.413v5.078h5.077v-5.078h25.39v5.078h5.079v-5.078c3.522.426 6.717-.378 9.585-2.412.085 5.035.085 10.071 0 15.107-.061 1.16-.632 1.943-1.714 2.349-16.839.21-33.681.252-50.527.127-1.503-.148-2.328-.974-2.476-2.476a898.968 898.968 0 0 1-.063-15.107Z" fill="#000"/></mask><g mask="url(#b)"><path fill="url(#c)" d="M-.059-.468h65.058V65H-.059z"/></g></g><defs><linearGradient id="c" x1="-4.731" y1="-.455" x2="43.371" y2="73.324" gradientUnits="userSpaceOnUse"><stop stop-color="#1BA5D9"/><stop offset="1" stop-color="#6DBE7F"/></linearGradient><clipPath id="a"><path fill="#fff" d="M0 0h65v65H0z"/></clipPath></defs></svg>