<svg width="65" height="65" fill="none" xmlns="http://www.w3.org/2000/svg"><mask id="b" style="mask-type:alpha" maskUnits="userSpaceOnUse" x="0" y="0" width="65" height="65"><g clip-path="url(#a)" fill-rule="evenodd" clip-rule="evenodd"><path d="M54.145-.063h6.602c.657.113 1.335.219 2.031.317.805.213 1.377.7 1.714 1.46.198.812.347 1.616.444 2.412v6.601c-.895 11.376-5.592 20.834-14.091 28.375a57.547 57.547 0 0 1-4.19 2.983c2.098 4.883 1.57 9.453-1.587 13.71l-7.553 7.555c-1.628.797-2.919.437-3.872-1.08a3.486 3.486 0 0 1-.19-1.142c.778-4.378-.131-8.356-2.73-11.934a75.661 75.661 0 0 1-4.634 1.714c-2.603.681-4.973.215-7.11-1.396l-3.618-3.618c-1.506-1.963-2.014-4.164-1.523-6.602a61.794 61.794 0 0 1 1.84-5.142c-3.577-2.599-7.555-3.508-11.933-2.73-1.893-.136-2.76-1.151-2.602-3.046a2.6 2.6 0 0 1 .38-1.016l7.554-7.553c4.258-3.156 8.828-3.685 13.711-1.587C29.075 8.658 37.878 2.797 49.194.635a82.831 82.831 0 0 1 4.951-.698Zm.254 5.205h5.332a38.626 38.626 0 0 1-1.206 11.933L47.798 6.348a41.669 41.669 0 0 1 6.601-1.206ZM42.085 8.188A772.755 772.755 0 0 1 56.62 22.534c-2.641 6.437-6.936 11.494-12.886 15.171a76.62 76.62 0 0 1-11.933 5.586 98.87 98.87 0 0 1-7.998 2.73 2.534 2.534 0 0 1-1.143-.318 55.983 55.983 0 0 1-3.237-3.11 2.39 2.39 0 0 1-.508-2.032 138.83 138.83 0 0 1 6.602-16.503c3.645-7.265 9.168-12.554 16.567-15.87ZM16.186 22.153a8.838 8.838 0 0 1 3.936.572c.058.052.1.116.127.19l-2.793 6.094a21.273 21.273 0 0 0-7.363-2.857 19.443 19.443 0 0 1 3.428-3.047 11.19 11.19 0 0 1 2.665-.952Zm19.824 0c1.476-.203-3.627 4.832-3.115 6.221.207 1.788 6.542.758 4.77 1.086-2.328-.552-3.266-4.58-2.249-6.735.4-.383.594-2.722.594-.572Zm5.821 22.471a.363.363 0 0 1 .317.127c.985 2.616.689 5.07-.888 7.363-.8.927-1.647 1.816-2.54 2.666a21.27 21.27 0 0 0-2.856-7.363c2.012-.9 4.001-1.831 5.967-2.793Z" fill="#000"/><path opacity=".998" d="M37.515 18.472c4.765-.288 7.706 1.87 8.823 6.474.327 4.533-1.683 7.432-6.03 8.697-4.027.536-6.926-1.008-8.697-4.634-1.22-3.913-.184-7.065 3.11-9.458a12.605 12.605 0 0 1 2.794-1.08Zm.634 5.205c-.488.21-.932.506-1.333.889-1.017 2.155-.36 3.51 1.968 4.062 1.772-.328 2.555-1.386 2.349-3.174-.512-1.388-1.507-1.98-2.984-1.777Z" fill="#000"/><path d="M14.155 49.067c.097.224.266.35.508.381 2.375 2.177 3.158 4.843 2.349 7.998-.814 2.464-2.443 4.136-4.888 5.015a61.46 61.46 0 0 1-8.76 2.475H1.587a89.897 89.897 0 0 0-.889-.571 8.749 8.749 0 0 1-.761-1.08V61.51a72.363 72.363 0 0 1 2.221-8.125c1.873-4.946 5.364-6.703 10.474-5.269a4.66 4.66 0 0 1 1.523.952ZM9.077 52.75c2.323.016 3.276 1.158 2.857 3.428a2.31 2.31 0 0 1-1.46 1.333 21.478 21.478 0 0 1-4.57 1.333 53.911 53.911 0 0 1 1.46-4.444c.31-.84.88-1.39 1.713-1.65Z" fill="#000"/><path opacity=".612" d="M14.155 49.067c.242.03.411.158.508.381a.6.6 0 0 1-.508-.38Z" fill="#283143"/></g></mask><g mask="url(#b)"><path d="M-.05-.05h70.042v70.487H-.049V-.05Z" fill="url(#c)"/><path d="M-.05-.05h70.043v70.487H-.05V-.05Z" fill="url(#d)"/></g><defs><linearGradient id="c" x1="34.996" y1="-10.529" x2="30.078" y2="74.737" gradientUnits="userSpaceOnUse"><stop stop-color="#3D8A65"/><stop offset=".547" stop-color="#45765E"/><stop offset="1" stop-color="#1BA5D9"/></linearGradient><linearGradient id="d" x1="34.996" y1="-10.529" x2="30.078" y2="74.737" gradientUnits="userSpaceOnUse"><stop stop-color="#1BA5D9"/><stop offset="1" stop-color="#6DBE7F"/></linearGradient><clipPath id="a"><path fill="#fff" d="M0 0h65v65H0z"/></clipPath></defs></svg>