<svg width="65" height="65" fill="none" xmlns="http://www.w3.org/2000/svg"><mask id="b" style="mask-type:alpha" maskUnits="userSpaceOnUse" x="0" y="0" width="65" height="65"><g clip-path="url(#a)" fill-rule="evenodd" clip-rule="evenodd"><path d="M26.216-.063h1.65C29.616.846 30.06 2.2 29.2 3.999a1929.854 1929.854 0 0 1-11.108 15.107c9.69.149 19.381.17 29.072.064L35.928 3.872c-.746-1.806-.26-3.118 1.46-3.935h1.523a3.368 3.368 0 0 1 1.587 1.269 2712.642 2712.642 0 0 0 13.14 17.9c3.215.106 6.431.17 9.648.19.756.207 1.306.652 1.65 1.334v12.44c-.272.548-.695.95-1.269 1.206-.92.177-1.85.24-2.793.19a569.646 569.646 0 0 1-.952 8.888c-.114 2.146-1.236 3.098-3.364 2.856-1.512-.55-2.126-1.63-1.841-3.237.438-3.982.903-7.96 1.396-11.934a2.31 2.31 0 0 1 1.333-1.46 9.702 9.702 0 0 1 2.54-.19V24.31H5.141v5.079c14.684-.022 29.368 0 44.052.063 1.482.572 2.054 1.651 1.714 3.237-.233.91-.804 1.482-1.714 1.714a6228.81 6228.81 0 0 0-39.736.19c.888 7.02 1.755 14.045 2.602 21.075.65 2.517 2.279 3.893 4.888 4.126 10.836.124 21.67.081 32.5-.127 2.403-.752 3.736-2.382 4-4.888.539-1.259 1.491-1.83 2.856-1.714 1.04.15 1.737.722 2.094 1.714-.002 4.173-1.843 7.241-5.522 9.204a23.47 23.47 0 0 1-2.92.952h-34.53c-4.753-1.05-7.609-3.97-8.57-8.76a7578.256 7578.256 0 0 1-2.602-21.708c-.805.02-1.61 0-2.412-.064a1.17 1.17 0 0 1-.762-.444c-.06-.178-.187-.263-.38-.254a2.015 2.015 0 0 1-.572-1.016 268.665 268.665 0 0 1 0-11.68 1.17 1.17 0 0 1 .444-.761c.212-.127.381-.296.508-.508a1.17 1.17 0 0 1 .762-.444c3.26-.021 6.518-.085 9.775-.19C16.056 12.994 20.521 6.9 25.01.824c.39-.328.791-.624 1.206-.888Z" fill="#020404"/><path opacity=".957" d="M1.08 19.741a1.465 1.465 0 0 1-.509.508c.043-.296.212-.465.508-.508Z" fill="#2E949C"/><path opacity=".6" d="M.698 33.706c.194-.01.321.075.381.254-.194.009-.32-.076-.38-.254Z" fill="#25BDCB"/><path d="M31.04 54.273c-.06-.179-.187-.264-.38-.254a2.016 2.016 0 0 1-.572-1.016 268.46 268.46 0 0 1 0-11.68c.405-1.166 1.23-1.758 2.475-1.777 1.246.019 2.07.61 2.476 1.777a268.46 268.46 0 0 1 0 11.68c-.572 1.482-1.651 2.053-3.237 1.714a1.17 1.17 0 0 1-.762-.444Z" fill="#020405"/><path opacity=".999" d="M41.958 39.546c1.585-.277 2.664.315 3.237 1.777a268.46 268.46 0 0 1 0 11.68c-.572 1.482-1.65 2.053-3.237 1.714-.91-.233-1.481-.804-1.714-1.714a268.46 268.46 0 0 1 0-11.68c.256-.912.828-1.504 1.714-1.777Z" fill="#010102"/><path d="M21.645 39.546c1.586-.277 2.665.315 3.238 1.777a268.46 268.46 0 0 1 0 11.68c-.572 1.482-1.651 2.053-3.238 1.714-.91-.233-1.48-.804-1.713-1.714a268.46 268.46 0 0 1 0-11.68c.256-.912.827-1.504 1.713-1.777Z" fill="#000001"/><path opacity=".722" d="M30.66 54.018c.193-.009.32.076.38.254-.194.01-.32-.075-.38-.254Z" fill="#28819D"/></g></mask><g mask="url(#b)"><path fill="url(#c)" d="M0 0h65v68.142H0z"/><path fill="url(#d)" d="M0 0h65v68.142H0z"/></g><defs><linearGradient id="c" x1="32.5" y1="0" x2="32.5" y2="68.142" gradientUnits="userSpaceOnUse"><stop stop-color="#1BA5D9"/><stop offset="1" stop-color="#6DBE7F"/></linearGradient><linearGradient id="d" x1="32.5" y1="0" x2="32.5" y2="68.142" gradientUnits="userSpaceOnUse"><stop stop-color="#1BA5D9"/><stop offset="1" stop-color="#6DBE7F"/></linearGradient><clipPath id="a"><path fill="#fff" d="M0 0h65v65H0z"/></clipPath></defs></svg>